<svg xmlns="http://www.w3.org/2000/svg" viewBox="0 0 689.79 900.99"><defs><style>.cls-1{fill:#e5305b;}.cls-2{fill:#605d5b;}.cls-3{fill:#fff;}</style></defs><g id="Capa_2" data-name="Capa 2"><g id="Capa_1-2" data-name="Capa 1"><path class="cls-1" d="M658.09,758.16H31.7A31.7,31.7,0,0,1,0,726.46V31.7A31.7,31.7,0,0,1,31.7,0H658.09a31.7,31.7,0,0,1,31.7,31.7V726.46a31.7,31.7,0,0,1-31.7,31.7"/><path class="cls-2" d="M99.06,817.05a26.92,26.92,0,0,1,19.25,7.4,1.48,1.48,0,0,1,.08,2.23l-4.85,5a1.28,1.28,0,0,1-2,0A18.8,18.8,0,0,0,99.3,827c-10.18,0-17.74,8.52-17.74,18.54S89.2,863.9,99.38,863.9a19.11,19.11,0,0,0,12.17-4.53,1.46,1.46,0,0,1,2,0l4.93,5.09a1.51,1.51,0,0,1-.08,2.15,27.3,27.3,0,0,1-19.33,7.71,28.64,28.64,0,1,1,0-57.27"/><path class="cls-2" d="M171.89,817.05a28.64,28.64,0,1,1-28.55,28.72,28.59,28.59,0,0,1,28.55-28.72m0,46.93a18.3,18.3,0,1,0-18.21-18.21A18.33,18.33,0,0,0,171.89,864"/><path class="cls-2" d="M263.35,818.24a1.34,1.34,0,0,1,1.43-1.19h1.27a1.44,1.44,0,0,1,1.35.8l17.5,37.54h.24l17.5-37.54a1.37,1.37,0,0,1,1.35-.8h1.28a1.35,1.35,0,0,1,1.43,1.19l9.38,53.46a1.38,1.38,0,0,1-1.43,1.83h-7.24a1.73,1.73,0,0,1-1.51-1.2l-4.69-30.14H301l-13.92,31.26a1.36,1.36,0,0,1-1.35.87h-1.43a1.44,1.44,0,0,1-1.36-.87l-14.07-31.26h-.24L264,872.33a1.54,1.54,0,0,1-1.43,1.2h-7.16a1.46,1.46,0,0,1-1.51-1.83Z"/><path class="cls-2" d="M348.19,819.36a1.5,1.5,0,0,1,1.51-1.51h18.69a17.74,17.74,0,1,1,.08,35.47h-9.94V872a1.57,1.57,0,0,1-1.51,1.52H349.7a1.51,1.51,0,0,1-1.51-1.52Zm19.57,24.26a8.2,8.2,0,0,0,8.19-8.27,7.94,7.94,0,0,0-8.19-7.72h-9.23v16Z"/><path class="cls-2" d="M410.83,871.46l24.74-53.53a1.41,1.41,0,0,1,1.35-.88h.79a1.34,1.34,0,0,1,1.35.88l24.5,53.53a1.4,1.4,0,0,1-1.35,2.07h-6.92a2.3,2.3,0,0,1-2.31-1.59l-3.89-8.59H425.3l-3.89,8.59a2.41,2.41,0,0,1-2.31,1.59h-6.92a1.41,1.41,0,0,1-1.35-2.07m34.36-16.94-8-17.5H437l-7.79,17.5Z"/><path class="cls-2" d="M494.26,818.48a1.5,1.5,0,0,1,1.51-1.43h2l33.09,35.16h.08V819.36a1.5,1.5,0,0,1,1.51-1.51h7.32a1.56,1.56,0,0,1,1.51,1.51v53.53a1.49,1.49,0,0,1-1.51,1.43h-1.91L504.6,837.81h-.08V872a1.51,1.51,0,0,1-1.51,1.51h-7.24a1.57,1.57,0,0,1-1.51-1.51Z"/><path class="cls-2" d="M590.19,846.72l-18.13-26.57a1.47,1.47,0,0,1,1.27-2.3h8.11a1.59,1.59,0,0,1,1.27.71l12.73,18.3,12.73-18.3a1.59,1.59,0,0,1,1.27-.71h8.19a1.47,1.47,0,0,1,1.28,2.3l-18.38,26.49V872a1.56,1.56,0,0,1-1.51,1.51H591.7a1.51,1.51,0,0,1-1.51-1.51Z"/><path class="cls-2" d="M210.14,898.59c3.78-4.58,11-14,14.82-19.06,1.78-2.18,2.92-4.41,2.92-6.36,0-2.57-1.94-5.21-6.06-5.21-2.75,0-5.1,1.95-6.42,3.38a1,1,0,0,1-1.54,0l-2.75-2.75a1.13,1.13,0,0,1-.06-1.49s4.47-5.6,11.28-5.6c8.19,0,12.77,5.2,12.77,11.39,0,3.72-1.61,6.06-3.84,9.27-2.46,3.49-6.81,8.87-9.84,12.71h12.36a1.12,1.12,0,0,1,1.09,1.08v3.95a1.13,1.13,0,0,1-1.09,1.09H211.23a1.09,1.09,0,0,1-1.09-1.09Z"/><path class="cls-3" d="M167.21,470.7h51.14c16.63,0,31.06,14,31.06,30.8,0,17.78-14.43,32.39-31.06,32.39H185v34h16.75L243.45,652a5.38,5.38,0,0,0,5,2.86h32.94c5.34,0,7.53-5.08,5.34-9.21l-43-80.66c27.3-11.11,46.44-34.93,46.44-64.14a68.36,68.36,0,0,0-68.4-68.27H132.07a6,6,0,0,0-6,6V648.84a6,6,0,0,0,6,6h28.86a6.21,6.21,0,0,0,6-6Z"/><path class="cls-3" d="M429.12,298H524a6.06,6.06,0,0,1,6.09,6v26a6.06,6.06,0,0,1-6.09,6H393.53a6.06,6.06,0,0,1-6.09-6V119.87a6.06,6.06,0,0,1,6.09-6H524a6.06,6.06,0,0,1,6.09,6v26a6.06,6.06,0,0,1-6.09,6H429.12Z"/><path class="cls-3" d="M508.32,242.44a6.05,6.05,0,0,0,6.09-6V210.05a6.27,6.27,0,0,0-6.09-6h-60.5v38.42Z"/><path class="cls-3" d="M271.18,297.69H209l-22.18,38.43h84.37a6,6,0,0,0,6-6V303.73a6,6,0,0,0-6-6"/><path class="cls-3" d="M277.53,113.83H144.79a6.25,6.25,0,0,0-6,6v26.35a6.25,6.25,0,0,0,6,6h79.39v1.27L129.55,324.37v5.71a6.25,6.25,0,0,0,6,6h31.51l31.11-53.89L283.56,124v-4.13a6.25,6.25,0,0,0-6-6"/><path class="cls-3" d="M533,454.26,510.45,488a76.1,76.1,0,0,1,24.24,56c0,40-30.49,72.72-67.43,72.72s-67.13-32.71-67.13-72.72,30.2-73.35,67.13-73.35a61.68,61.68,0,0,1,27.58,6.58l22.76-34.09a98.88,98.88,0,0,0-50.34-13.77C408.63,429.42,362,480.54,362,544.05s46.61,114,105.24,114,105.54-50.49,105.54-114c0-36.48-15.51-68.82-39.8-89.79"/></g></g></svg>