<?xml version="1.0" encoding="UTF-8" standalone="no"?>
<svg
   width="123.50519pt"
   height="139.26073pt"
   version="1.1"
   viewBox="0 0 123.50519 139.26073"
   id="svg8"
   sodipodi:docname="access.svg"
   xml:space="preserve"
   inkscape:version="1.3.2 (091e20e, 2023-11-25, custom)"
   xmlns:inkscape="http://www.inkscape.org/namespaces/inkscape"
   xmlns:sodipodi="http://sodipodi.sourceforge.net/DTD/sodipodi-0.dtd"
   xmlns="http://www.w3.org/2000/svg"
   xmlns:svg="http://www.w3.org/2000/svg"><defs
     id="defs8"><filter
       id="filter0_f_2476_4033"
       x="0.85790402"
       y="0.52489698"
       width="98.950203"
       height="26.950199"
       filterUnits="userSpaceOnUse"
       color-interpolation-filters="sRGB"><feFlood
         flood-opacity="0"
         result="BackgroundImageFix"
         id="feFlood1" /><feBlend
         mode="normal"
         in="SourceGraphic"
         in2="BackgroundImageFix"
         result="shape"
         id="feBlend1" /><feGaussianBlur
         stdDeviation="4.73755"
         result="effect1_foregroundBlur_2476_4033"
         id="feGaussianBlur1" /></filter></defs><sodipodi:namedview
     id="namedview8"
     pagecolor="#ffffff"
     bordercolor="#000000"
     borderopacity="0.25"
     inkscape:showpageshadow="2"
     inkscape:pageopacity="0.0"
     inkscape:pagecheckerboard="0"
     inkscape:deskcolor="#d1d1d1"
     inkscape:document-units="pt"
     inkscape:zoom="0.508125"
     inkscape:cx="790.1599"
     inkscape:cy="800"
     inkscape:window-width="1920"
     inkscape:window-height="1009"
     inkscape:window-x="-8"
     inkscape:window-y="-8"
     inkscape:window-maximized="1"
     inkscape:current-layer="svg8" /><g
     fill="#9d7800"
     id="g8"
     transform="matrix(0.10179032,0,0,0.10179032,1.7651571,3.1554999e-4)"
     style="stroke-width:9.82412"><path
       d="M 1186.4,1173.7 1047.56,976.66 c 3.7188,-7.8008 5.6406,-16.559 5.6406,-25.68 v -562.8 c 0,-33.961 -27.48,-61.441 -61.441,-61.441 l -783.72,0.004 c -33.84,0 -61.441,27.48 -61.441,61.441 v 562.8 c 0,9.1211 2.0391,17.879 5.6406,25.68 l -138.72,197.04 c -3.6016,5.0391 -4.0781,11.762 -1.1992,17.281 3,5.5195 8.6406,9 14.879,9 h 1145.6 c 6.2383,0 11.879,-3.4805 14.762,-9 2.7578,-5.5195 2.2812,-12.121 -1.1992,-17.281 z m -256.44,-95.758 c 0,9.2383 -7.4414,16.68 -16.68,16.68 h -631.8 c -9.2383,0 -16.68,-7.4414 -16.68,-16.68 0,-9.1211 7.4414,-16.68 16.68,-16.68 h 631.8 c 9.2383,0.1172 16.68,7.5586 16.68,16.68 z m -750,-689.76 c 0,-15.602 12.602,-28.199 28.199,-28.199 h 783.72 c 15.602,0 28.199,12.602 28.199,28.199 v 562.8 c 0,5.7617 -1.6797,11.16 -4.6797,15.602 -0.4805,0.60156 -0.9609,1.1992 -1.3203,1.8008 -5.1602,6.4805 -13.199,10.801 -22.199,10.801 l -783.84,-0.004 c -9,0 -16.922,-4.1992 -22.078,-10.801 -0.35938,-0.60156 -0.83984,-1.1992 -1.3203,-1.8008 -3,-4.4414 -4.8008,-9.8398 -4.8008,-15.602 v -562.8 z"
       id="path1"
       style="stroke-width:9.82412" /><path
       d="m 692.16,703.44 c 0,-46.078 -37.559,-83.641 -83.641,-83.641 -46.078,0 -83.641,37.559 -83.641,83.641 0,40.441 28.922,74.281 66.961,81.961 v 153.36 c 0,9.2383 7.4414,16.68 16.68,16.68 9.2386,0 16.68,-7.4414 16.68,-16.68 v -153.36 c 38.16,-7.6797 66.961,-41.52 66.961,-81.957 z"
       id="path2"
       style="stroke-width:9.82412" /><path
       d="m 422.04,722.52 h 27.602 c 3.6016,30.719 15.719,59.16 34.801,82.32 l -26.398,26.398 c -6.4805,6.4805 -6.4805,17.039 0,23.52 3.2383,3.2383 7.5586,4.9219 11.762,4.9219 4.1992,0 8.5195,-1.6797 11.762,-4.9219 l 26.52,-26.52 c 9.1211,7.3203 19.078,13.68 30,19.078 8.2812,4.0781 18.238,0.60156 22.32,-7.6797 4.0781,-8.2812 0.60156,-18.238 -7.6797,-22.32 -12.359,-6.1211 -23.398,-13.922 -32.879,-23.16 -0.23828,-0.23828 -0.35938,-0.48047 -0.48047,-0.60156 -0.23828,-0.23828 -0.60156,-0.48047 -0.83984,-0.71875 -23.16,-23.281 -36.719,-54.961 -36.719,-89.281 0,-69.961 56.879,-126.84 126.84,-126.84 69.961,0 126.84,56.879 126.84,126.84 0,34.922 -13.922,67.078 -37.922,90.48 -0.23828,0.23828 -0.48047,0.35938 -0.71875,0.60156 -0.12109,0.12109 -0.23828,0.35938 -0.35938,0.48047 -9.2383,8.8789 -20.039,16.441 -32.039,22.32 -8.2812,4.0781 -11.641,14.039 -7.6797,22.32 2.8789,5.8789 8.7617,9.3594 15,9.3594 2.3984,0 4.9219,-0.60156 7.3203,-1.6797 10.441,-5.0391 20.039,-11.16 28.801,-18.121 l 25.68,25.68 c 3.2383,3.2383 7.5586,4.9219 11.762,4.9219 4.1992,0 8.5195,-1.6797 11.762,-4.9219 6.4805,-6.4805 6.4805,-17.039 0,-23.52 l -25.32,-25.32 c 19.559,-23.398 32.039,-52.32 35.762,-83.52 h 39.121 c 9.2383,0 16.68,-7.4414 16.68,-16.68 0,-9.2386 -7.4414,-16.68 -16.68,-16.68 l -38.656,0.004 c -2.8789,-32.398 -15.48,-62.039 -34.801,-86.039 l 20.039,-20.039 c 6.4805,-6.4805 6.4805,-17.039 0,-23.52 -6.4805,-6.4805 -17.039,-6.4805 -23.52,0 l -19.922,19.922 c -23.039,-18.84 -51.238,-31.32 -82.199,-35.039 v -27.602 c 0,-9.2383 -7.4414,-16.68 -16.68,-16.68 -9.2386,0 -16.68,7.4414 -16.68,16.68 v 27.121 c -33.359,3 -63.719,16.199 -88.078,36.48 l -20.879,-20.879 c -6.4805,-6.4805 -17.039,-6.4805 -23.52,0 -6.481,6.4805 -6.4805,17.039 0,23.52 l 21.121,21.121 c -18.84,23.762 -31.078,53.039 -33.84,84.84 h -27.121 c -9.2383,0 -16.68,7.4414 -16.68,16.68 0.11719,9.1133 7.5586,16.672 16.797,16.672 z"
       id="path3"
       style="stroke-width:9.82412" /><path
       d="m 291.36,77.52 v 58.32 c 0,4.3203 1.6797,8.5195 4.8008,11.641 l 108.96,111.24 c 3.2383,3.3594 7.5586,5.0391 11.879,5.0391 4.1992,0 8.3984,-1.5586 11.641,-4.8008 6.6016,-6.4805 6.7188,-16.922 0.23828,-23.52 l -104.16,-106.32 v -48.598 c 16.32,-5.5195 28.078,-21 28.078,-39.121 0,-22.801 -18.602,-41.281 -41.281,-41.281 -22.801,0 -41.281,18.602 -41.281,41.281 -0.23438,15.48 8.4062,28.922 21.125,36.121 z"
       id="path4"
       style="stroke-width:9.82412" /><path
       d="m 596.28,130.44 v 124.92 c 0,9.2383 7.4414,16.68 16.68,16.68 9.2383,0 16.68,-7.4414 16.68,-16.68 v -126 c 13.922,-6.6016 23.398,-20.879 23.398,-37.199 0,-22.801 -18.48,-41.281 -41.281,-41.281 -22.801,0 -41.281,18.602 -41.281,41.281 0.004,17.277 10.684,32.156 25.805,38.277 z"
       id="path5"
       style="stroke-width:9.82412" /><path
       d="m 209.64,251.04 c 17.16,0 32.039,-10.559 38.16,-25.559 h 47.398 l 81.602,73.441 c 3.2383,2.8789 7.1992,4.3203 11.16,4.3203 4.5586,0 9.1211,-1.8008 12.359,-5.5195 6.1211,-6.8398 5.6406,-17.398 -1.1992,-23.52 l -86.281,-77.641 c -3,-2.7617 -7.0781,-4.3203 -11.16,-4.3203 h -54.48 c -6.6016,-14.039 -20.879,-23.879 -37.441,-23.879 -22.801,0 -41.281,18.602 -41.281,41.281 -0.11719,22.914 18.484,41.395 41.164,41.395 z"
       id="path6"
       style="stroke-width:9.82412" /><path
       d="m 806.4,263.76 c 4.3203,0 8.6406,-1.6797 11.879,-5.0391 l 108.96,-111.24 c 3,-3.1211 4.8008,-7.3203 4.8008,-11.641 v -58.445 c 12.602,-7.0781 21.238,-20.641 21.238,-36.121 0.004,-22.676 -18.477,-41.277 -41.277,-41.277 -22.8,0 -41.281,18.602 -41.281,41.281 0,18.121 11.762,33.602 28.078,39.121 v 48.602 l -104.16,106.32 c -6.4805,6.6016 -6.3594,17.16 0.23828,23.52 3.125,3.2344 7.3242,4.918 11.523,4.918 z"
       id="path7"
       style="stroke-width:9.82412" /><path
       d="m 921.72,192.24 c -4.0781,0 -8.0391,1.5586 -11.16,4.3203 l -86.281,77.641 c -6.8398,6.1211 -7.4414,16.68 -1.1992,23.52 3.2383,3.6016 7.8008,5.5195 12.359,5.5195 3.9609,0 7.9219,-1.4414 11.16,-4.3203 l 81.602,-73.441 h 47.398 c 6.2383,15 21,25.559 38.16,25.559 22.801,0 41.281,-18.602 41.281,-41.281 0,-22.801 -18.602,-41.281 -41.281,-41.281 -16.559,0 -30.84,9.8398 -37.441,23.879 l -54.598,0.008 z"
       id="path8"
       style="stroke-width:9.82412" /></g><g
     style="fill:none;stroke-width:0.775169"
     id="g9"
     transform="matrix(1.248155,0,0,0.75,-1.0707972,118.6544)"><ellipse
       cx="50.333"
       cy="14"
       rx="40"
       ry="4"
       fill="#a5a5a5"
       fill-opacity="0.3"
       id="ellipse1"
       style="stroke-width:0.775169;filter:url(#filter0_f_2476_4033)" /></g></svg>
