<?xml version="1.0" encoding="UTF-8" standalone="no"?>
<svg
   width="83.092422pt"
   height="70.097557pt"
   version="1.1"
   viewBox="0 0 83.092432 70.097556"
   id="svg8"
   sodipodi:docname="booking.svg"
   xml:space="preserve"
   inkscape:version="1.3.2 (091e20e, 2023-11-25, custom)"
   xmlns:inkscape="http://www.inkscape.org/namespaces/inkscape"
   xmlns:sodipodi="http://sodipodi.sourceforge.net/DTD/sodipodi-0.dtd"
   xmlns="http://www.w3.org/2000/svg"
   xmlns:svg="http://www.w3.org/2000/svg"><defs
     id="defs8"><filter
       id="filter0_f_2476_4033"
       x="0.85790402"
       y="0.52489698"
       width="98.950203"
       height="26.950199"
       filterUnits="userSpaceOnUse"
       color-interpolation-filters="sRGB"><feFlood
         flood-opacity="0"
         result="BackgroundImageFix"
         id="feFlood1" /><feBlend
         mode="normal"
         in="SourceGraphic"
         in2="BackgroundImageFix"
         result="shape"
         id="feBlend1" /><feGaussianBlur
         stdDeviation="4.73755"
         result="effect1_foregroundBlur_2476_4033"
         id="feGaussianBlur1" /></filter></defs><sodipodi:namedview
     id="namedview8"
     pagecolor="#ffffff"
     bordercolor="#000000"
     borderopacity="0.25"
     inkscape:showpageshadow="2"
     inkscape:pageopacity="0.0"
     inkscape:pagecheckerboard="0"
     inkscape:deskcolor="#d1d1d1"
     inkscape:document-units="pt"
     inkscape:zoom="0.508125"
     inkscape:cx="652.39852"
     inkscape:cy="754.73555"
     inkscape:window-width="1920"
     inkscape:window-height="1009"
     inkscape:window-x="-8"
     inkscape:window-y="-8"
     inkscape:window-maximized="1"
     inkscape:current-layer="svg8" /><g
     fill="#c362dd"
     id="g8"
     transform="matrix(0.08425489,0,0,0.05459421,-9.3640885,-1.820171)"
     style="stroke-width:8.14818"><path
       d="M 1066.7,166.67 H 811.14 c -12.27,0 -22.223,9.9492 -22.223,22.223 0,12.27 9.9492,22.223 22.223,22.223 h 233.33 v 911.11 H 378.55 c 34.121,-34.129 -58.203,57.523 132.96,-134.16 25.922,-25.953 26.965,-66.941 2.3828,-93.316 -5.8984,-6.332 -12.723,-11.238 -20.043,-14.742 l 175.54,-175.53 c 25.992,-25.992 25.992,-68.285 0,-94.281 -26.062,-26.07 -68.223,-26.059 -94.281,-0.004 l -112.68,112.68 c -16.801,-35.121 -59.824,-48.316 -93.27,-29.137 -15.797,-36.672 -60.117,-50.965 -94.273,-31.484 -2.9297,-6.8008 -7.0625,-13.219 -12.402,-18.949 -25.82,-27.645 -69.199,-28.406 -95.93,-1.6797 l -47.156,47.156 c -5.0352,4.0781 -8.2578,10.297 -8.2578,17.273 v 436.82 c 0,13.348 12.332,23.801 23.988,23.801 106.17,-0.016 825.49,0 931.57,0 12.27,0 22.223,-9.9492 22.223,-22.223 V 188.90039 c 0,-12.273 -9.9531,-22.223 -22.223,-22.223 z m -778.68,955.55 c -68.879,-0.6484 -108.85,-1.0391 -132.44,-0.8711 V 715.43891 l 42.391,-42.391 c 8.6992,-8.7031 23.195,-8.8633 32.008,0.57031 8.0547,8.6406 7.4609,22.82 -1.3242,31.602 -0.41406,0.41406 -2.2773,2.4297 -22.469,24.066 -9.5859,10.262 -7.2539,26.777 4.5938,34.078 8.5703,5.3242 20.191,4.1758 27.586,-3.4258 l 53.992,-55.562 c 8.6719,-8.5703 22.703,-8.543 31.332,0.0937 8.6875,8.6836 8.6914,22.723 0.0117,31.41 -66.078,66.309 -63.395,62.836 -65.715,66.355 -5.6836,8.6055 -4.7617,20.332 2.8477,27.941 8.6875,8.6836 22.758,8.668 31.43,0 74.648,-74.648 46.102,-46.102 94.281,-94.281 8.6875,-8.6914 22.738,-8.6914 31.426,0 8.6914,8.6875 8.6914,22.738 0,31.426 l -94.281,94.281 c -8.6797,8.6797 -8.6797,22.75 0,31.43 8.6797,8.6758 22.746,8.6797 31.426,0 l 251.41,-251.42 c 8.6953,-8.6914 22.734,-8.6875 31.426,0.004 8.6641,8.6641 8.6641,22.762 0,31.426 -2.8164,2.8164 -305.89,305.88 -314.28,314.27 -8.6797,8.6797 -8.6797,22.74998 0,31.42998 8.6602,8.6562 22.734,8.6992 31.438,0 l 94.43,-94.42998 c 9.0273,-8.8633 23.344,-8.3828 31.836,0.73438 8.0547,8.6406 7.4648,22.82 -1.3008,31.602 l -101.54,101.51 c -34.41,34.402 -50.551,60.656 -90.523,64.062 z"
       id="path1"
       style="stroke-width:8.14818" /><path
       d="m 311.11,698.07 c -12.273,0 -22.223,-9.9492 -22.223,-22.223 l 0.004,-486.95 c 0,-12.27 9.9492,-22.223 22.223,-22.223 h 233.33 c 12.273,0 22.223,9.9492 22.223,22.223 0,12.27 -9.9492,22.223 -22.223,22.223 h -211.11 v 464.73 c -0.004,12.27 -9.9531,22.219 -22.227,22.219 z"
       id="path2"
       style="stroke-width:8.14818" /><path
       d="m 677.78,255.55 c -36.762,0 -66.668,-29.906 -66.668,-66.668 0,-36.762 29.906,-66.668 66.668,-66.668 36.762,0 66.668,29.906 66.668,66.668 0,36.762 -29.906,66.668 -66.668,66.668 z m 0,-88.887 c -12.254,0 -22.223,9.9688 -22.223,22.223 0,12.2542 9.9688,22.223 22.223,22.223 12.2542,0 22.223,-9.9688 22.223,-22.223 0,-12.2542 -9.9688,-22.223 -22.223,-22.223 z"
       id="path3"
       style="stroke-width:8.14818" /><path
       d="M 662.49,405.02 C 648.131,391.415 522.22,269.75 522.22,188.89 c 0,-85.773 69.781,-155.55 155.55,-155.55 85.773,0 155.55,69.781 155.55,155.55 0,80.859 -125.91,202.52 -140.27,216.13 -8.5703,8.1211 -22,8.1211 -30.57,0 z M 677.775,77.78 c -61.266,0 -111.11,49.844 -111.11,111.11 0,41.984 62.91,119.91 111.11,168.84 48.199,-48.93 111.11,-126.86 111.11,-168.84 0.004,-61.266 -49.844,-111.11 -111.11,-111.11 z"
       id="path4"
       style="stroke-width:8.14818" /><path
       d="M 866.67,677.78 H 666.63 c -12.27,0 -22.223,-9.9492 -22.223,-22.223 0,-12.27 9.9492,-22.223 22.223,-22.223 h 200.04 c 24.508,0 44.445,-19.938 44.445,-44.445 0,-24.547 -19.898,-44.445 -44.445,-44.445 l -355.56,0.004 c -24.508,0 -44.445,19.938 -44.445,44.445 0,24.547 19.898,44.445 44.445,44.445 h 50.023 c 12.27,0 22.223,9.9492 22.223,22.223 0,12.27 -9.9492,22.223 -22.223,22.223 L 511.11,677.78 c -49.105,0 -88.891,-39.773 -88.891,-88.891 0,-49.012 39.875,-88.891 88.891,-88.891 h 355.55 c 49.105,0 88.891,39.773 88.891,88.891 0,49.016 -39.875,88.891 -88.887,88.891 z"
       id="path5"
       style="stroke-width:8.14818" /><path
       d="M 888.89,811.11 H 711.11 c -12.27,0 -22.223,-9.9492 -22.223,-22.223 0,-12.27 9.9492,-22.223 22.223,-22.223 h 177.78 c 12.27,0 22.223,9.9492 22.223,22.223 -0.004,12.273 -9.9531,22.223 -22.223,22.223 z"
       id="path6"
       style="stroke-width:8.14818" /><path
       d="M 888.89,922.22 H 711.11 c -12.27,0 -22.223,-9.9492 -22.223,-22.223 0,-12.27 9.9492,-22.223 22.223,-22.223 h 177.78 c 12.27,0 22.223,9.9492 22.223,22.223 -0.004,12.27 -9.9531,22.223 -22.223,22.223 z"
       id="path7"
       style="stroke-width:8.14818" /><path
       d="M 888.89,1033.3 H 711.11 c -12.27,0 -22.223,-9.9492 -22.223,-22.223 0,-12.27 9.9492,-22.223 22.223,-22.223 h 177.78 c 12.27,0 22.223,9.9492 22.223,22.223 -0.004,12.273 -9.9531,22.223 -22.223,22.223 z"
       id="path8"
       style="stroke-width:8.14818" /></g><g
     style="fill:none;stroke-width:0.788518"
     id="g9"
     transform="matrix(0.82812463,0,0,0.33363237,0.43887372,60.930972)"><ellipse
       cx="50.333"
       cy="14"
       rx="40"
       ry="4"
       fill="#a5a5a5"
       fill-opacity="0.3"
       id="ellipse1"
       style="stroke-width:0.788518;filter:url(#filter0_f_2476_4033)" /></g></svg>
