<svg width="400" height="400" xmlns="http://www.w3.org/2000/svg" xmlns:xlink="http://www.w3.org/1999/xlink" xml:space="preserve" overflow="hidden"><g transform="translate(-803 0)"><path d="M939.892 127.876C943.47 128.626 945.251 129.017 948.83 129.782 954.408 130.813 959.533 127.032 961.017 121.72 962.47 116.267 963.314 113.563 965.174 108.189 966.939 102.954 964.908 96.8918 959.689 94.5794 956.611 93.3138 955.064 92.6888 951.97 91.4232 944.455 88.3607 918.377 78.9544 909.018 104.939 903.268 126.642 900.284 148.439 900.081 170.235 900.3 192.032 903.284 213.827 909.018 235.531 918.378 261.515 944.456 252.109 951.97 249.046 955.049 247.781 956.595 247.156 959.689 245.89 964.908 243.578 966.939 237.515 965.174 232.281 963.314 226.922 962.47 224.203 961.017 218.75 959.548 213.437 954.424 209.656 948.83 210.687 945.251 211.437 943.47 211.828 939.892 212.594 936.83 213.234 933.736 210.859 933.08 207.25 931.033 194.844 929.939 182.531 929.814 170.25 929.939 157.953 931.048 145.656 933.08 133.234 933.736 129.609 936.83 127.219 939.892 127.875Z" fill="#F38F19"/><path d="M1097.02 164.484C1087.66 138.5 1061.58 147.906 1054.06 150.968 1050.99 152.234 1049.44 152.859 1046.35 154.125 1041.13 156.437 1039.08 162.5 1040.86 167.734 1042.74 173.093 1043.56 175.812 1045.02 181.265 1046.49 186.577 1051.61 190.359 1057.19 189.327 1060.77 188.577 1062.56 188.187 1066.13 187.421 1069.19 186.781 1072.28 189.156 1072.94 192.765 1075 205.171 1076.08 217.484 1076.2 229.78 1076.08 242.077 1074.99 254.374 1072.94 266.796 1072.28 270.405 1069.19 272.78 1066.13 272.14 1062.55 271.39 1060.77 270.999 1057.19 270.233 1051.61 269.202 1046.49 272.983 1045.02 278.296 1043.55 283.749 1042.72 286.452 1040.86 291.827 1039.1 297.061 1041.13 303.124 1046.35 305.436 1049.42 306.702 1050.97 307.327 1054.06 308.592 1061.58 311.671 1087.66 321.061 1097.02 295.077 1102.77 273.389 1105.73 251.593 1105.94 229.781 1105.73 207.968 1102.75 186.173 1097.02 164.485Z" fill="#F38F19"/><path d="M1003.69 144C1007.77 146.234 1012.45 147.484 1017.44 147.484 1033.3 147.484 1046.16 134.625 1046.16 118.766 1046.16 102.906 1033.3 90.0624 1017.44 90.0624 1001.58 90.0624 988.719 102.922 988.719 118.766 988.719 122.578 989.469 126.203 990.797 129.531L973.719 149.922ZM1018.78 122.219 1016.06 122.219C1011.2 122.219 1007.25 118.266 1007.25 113.406 1007.25 109.266 1010.13 105.766 1014 104.828L1014 103.172C1014 101.266 1015.55 99.7346 1017.44 99.7346 1019.33 99.7346 1020.88 101.282 1020.88 103.172L1020.88 104.578 1024.17 104.578C1026.08 104.578 1027.61 106.125 1027.61 108.016 1027.61 109.907 1026.06 111.453 1024.17 111.453L1016.08 111.453C1015 111.453 1014.14 112.328 1014.14 113.391 1014.14 114.469 1015.02 115.328 1016.08 115.328L1018.8 115.328C1023.67 115.328 1027.61 119.282 1027.61 124.156 1027.61 128.297 1024.73 131.797 1020.86 132.734L1020.86 134.391C1020.86 136.297 1019.31 137.828 1017.42 137.828 1015.53 137.828 1013.98 136.281 1013.98 134.391L1013.98 132.984 1010.69 132.984C1008.78 132.984 1007.25 131.438 1007.25 129.547 1007.25 127.656 1008.8 126.109 1010.69 126.109L1018.78 126.109C1019.86 126.109 1020.72 125.234 1020.72 124.172 1020.73 123.094 1019.86 122.219 1018.78 122.219Z" fill="#F38F19"/><path d="M1029.06 217.936C1030.41 214.608 1031.14 210.983 1031.14 207.17 1031.14 191.311 1018.28 178.452 1002.42 178.452 986.564 178.452 973.705 191.311 973.705 207.17 973.705 223.03 986.564 235.889 1002.42 235.889 1007.39 235.889 1012.08 234.624 1016.17 232.389L1046.13 238.311ZM1018.22 200.874 1000.74 218.358C1000.06 219.03 999.189 219.374 998.314 219.374 997.439 219.374 996.548 219.03 995.877 218.358L986.658 209.139C985.314 207.795 985.314 205.624 986.658 204.28 988.002 202.936 990.189 202.936 991.533 204.28L998.314 211.061 1013.36 196.014C1014.7 194.671 1016.89 194.671 1018.24 196.014 1019.56 197.343 1019.56 199.53 1018.22 200.874Z" fill="#F38F19"/></g></svg>