<svg width="51" height="51" viewBox="0 0 51 51" fill="none" xmlns="http://www.w3.org/2000/svg">
<g id="Group 14173">
<g id="Group 14172">
<path id="Vector" d="M25.6638 50.9154C11.7367 50.9154 0.476562 39.6553 0.476562 25.7282C0.476562 11.8012 11.7367 0.541016 25.6638 0.541016C39.5908 0.541016 50.851 11.8012 50.851 25.7282C50.851 39.6553 39.4426 50.9154 25.6638 50.9154ZM25.6638 3.50422C13.3665 3.50422 3.43976 13.4309 3.43976 25.7282C3.43976 38.0255 13.3665 47.9522 25.6638 47.9522C37.961 47.9522 47.8878 38.0255 47.8878 25.7282C47.8878 13.4309 37.8129 3.50422 25.6638 3.50422Z" fill="black"/>
</g>
<path id="Vector_2" d="M11.5033 44.0457L8.87256 42.8631C9.60333 41.0892 11.9418 40.0544 14.4264 38.8719C16.911 37.6893 19.9803 36.3589 19.9803 34.7328V32.5155C19.1033 31.7764 17.6418 30.1503 17.3495 27.7851C16.6187 27.046 15.4495 25.7156 15.4495 23.9418C15.4495 22.907 15.8879 22.0201 16.1803 21.4288C15.8879 20.2462 15.5956 18.0288 15.5956 16.255C15.5956 10.4899 19.5418 6.64648 25.8264 6.64648C27.5803 6.64648 29.7726 7.08995 30.9418 8.42036C33.7187 9.01165 36.0572 12.2638 36.0572 16.255C36.0572 18.768 35.6187 20.8375 35.3264 21.8722C35.6187 22.3157 35.911 23.0548 35.911 23.9418C35.911 25.8635 34.888 27.1939 34.011 27.7851C33.7187 30.1503 32.4033 31.6285 31.5264 32.3677V34.7328C31.5264 36.0632 34.1572 37.098 36.4957 37.9849C39.2726 39.0197 42.1957 40.2023 43.2187 42.5674L40.4418 43.6022C40.0034 42.4196 37.6649 41.5327 35.4726 40.7936C32.2572 39.611 28.6033 38.2806 28.6033 34.8806V31.0373L29.3341 30.5938C29.3341 30.5938 31.088 29.4112 31.088 27.046V26.0113L31.9649 25.5678C32.111 25.5678 32.8418 25.1243 32.8418 23.9418C32.8418 23.6461 32.5495 23.2026 32.4033 23.0548L31.8187 22.4635L32.111 21.7244C32.111 21.7244 32.8418 19.3592 32.8418 16.4028C32.8418 13.5942 31.2341 11.5246 29.9187 11.5246H29.0418L28.6033 10.7855C28.6033 10.1942 27.5803 9.60294 25.8264 9.60294C21.2956 9.60294 18.5187 12.1159 18.5187 16.255C18.5187 18.1767 19.2495 21.4288 19.2495 21.4288L19.3956 22.1679L18.811 22.907C18.6649 22.907 18.3726 23.3505 18.3726 23.9418C18.3726 24.6809 19.2495 25.5678 19.688 25.8635L20.2726 26.3069V27.046C20.2726 29.2634 22.1726 30.446 22.1726 30.5938L22.9033 31.0373V34.8806C22.9033 38.4284 19.1033 40.2023 15.5956 41.6805C13.9879 42.2718 11.7956 43.3065 11.5033 44.0457Z" fill="black"/>
</g>
</svg>
