<?xml version="1.0" encoding="UTF-8" standalone="no"?>
<svg
   width="120.67577pt"
   height="134.76735pt"
   version="1.1"
   viewBox="0 0 120.67577 134.76735"
   id="svg8"
   sodipodi:docname="doctor.svg"
   xml:space="preserve"
   inkscape:version="1.3.2 (091e20e, 2023-11-25, custom)"
   xmlns:inkscape="http://www.inkscape.org/namespaces/inkscape"
   xmlns:sodipodi="http://sodipodi.sourceforge.net/DTD/sodipodi-0.dtd"
   xmlns="http://www.w3.org/2000/svg"
   xmlns:svg="http://www.w3.org/2000/svg"><defs
     id="defs8"><filter
       id="filter0_f_2476_4033"
       x="0.85790402"
       y="0.52489698"
       width="98.950203"
       height="26.950199"
       filterUnits="userSpaceOnUse"
       color-interpolation-filters="sRGB"><feFlood
         flood-opacity="0"
         result="BackgroundImageFix"
         id="feFlood1" /><feBlend
         mode="normal"
         in="SourceGraphic"
         in2="BackgroundImageFix"
         result="shape"
         id="feBlend1" /><feGaussianBlur
         stdDeviation="4.73755"
         result="effect1_foregroundBlur_2476_4033"
         id="feGaussianBlur1" /></filter></defs><sodipodi:namedview
     id="namedview8"
     pagecolor="#ffffff"
     bordercolor="#000000"
     borderopacity="0.25"
     inkscape:showpageshadow="2"
     inkscape:pageopacity="0.0"
     inkscape:pagecheckerboard="0"
     inkscape:deskcolor="#d1d1d1"
     inkscape:document-units="pt"
     inkscape:zoom="0.508125"
     inkscape:cx="778.35178"
     inkscape:cy="756.70357"
     inkscape:window-width="1920"
     inkscape:window-height="1009"
     inkscape:window-x="-8"
     inkscape:window-y="-8"
     inkscape:window-maximized="1"
     inkscape:current-layer="svg8" /><g
     fill="#00449e"
     id="g8"
     transform="matrix(0.1028117,0,0,0.1028117,-1.0108372,-3.2770715)"
     style="stroke-width:9.72652"><path
       d="m 325.78,524.06 c -12.891,0 -23.438,10.547 -23.438,23.438 v 9.8438 c 0,8.9062 -7.5,16.172 -16.406,16.172 -8.906,0 -16.406,-7.2656 -16.406,-16.172 v -9.8438 c 0,-12.891 -10.547,-23.438 -23.438,-23.438 -12.891,0 -23.438,10.547 -23.438,23.438 v 9.8438 c 0,34.688 28.594,63.047 63.281,63.047 34.687,0 63.281,-28.359 63.281,-63.047 v -9.8438 c 0,-13.125 -10.547,-23.438 -23.438,-23.438 z"
       id="path1"
       style="stroke-width:9.72652" /><path
       d="m 483.98,620.39 c 34.688,0 62.109,-28.359 62.109,-63.047 v -9.8438 c 0,-12.891 -10.547,-23.438 -23.438,-23.438 -12.891,0 -23.438,10.547 -23.438,23.438 v 9.8438 c 0,8.9062 -6.3281,16.172 -15.234,16.172 -8.9059,0 -15.234,-7.2656 -15.234,-16.172 v -9.8438 c 0,-12.891 -10.547,-23.438 -23.438,-23.438 -12.891,0 -23.438,10.547 -23.438,23.438 v 9.8438 c 0,34.688 27.422,63.047 62.109,63.047 z"
       id="path2"
       style="stroke-width:9.72652" /><path
       d="m 473.91,1031.2 h -19.688 c -12.891,0 -23.438,10.547 -23.438,23.438 0,12.891 10.547,23.438 23.438,23.438 h 19.688 c 12.891,0 23.438,-10.547 23.438,-23.438 0,-12.891 -10.547,-23.438 -23.438,-23.438 z"
       id="path3"
       style="stroke-width:9.72652" /><path
       d="m 473.91,1092.2 h -19.688 c -12.891,0 -23.438,10.547 -23.438,23.438 0,12.891 10.547,23.438 23.438,23.438 h 19.688 c 12.891,0 23.438,-10.547 23.438,-23.438 0,-12.891 -10.547,-23.438 -23.438,-23.438 z"
       id="path4"
       style="stroke-width:9.72652" /><path
       d="m 582.66,883.59 h -90.469 v -23.203 c 82.031,-37.734 139.45,-116.72 147.19,-210.23 30.703,-7.2656 53.438,-34.922 53.438,-67.969 0,-32.578 -22.5,-60 -52.969,-67.734 v -94.922 h 32.578 c 12.891,0 23.438,-10.312 23.438,-23.203 0,-99.844 -81.094,-180.7 -180.94,-180.7 h -162.19 c -35.156,0 -66.328,18.047 -84.609,45 -60.234,3.75 -94.219,37.5 -112.5,66.562 -20.625,32.344 -25.781,65.156 -25.781,66.562 -0.23438,1.1719 -0.70312,2.1094 -0.70312,3.2812 v 117.66 c -30.469,7.5 -52.031,35.156 -52.031,67.734 -0.23438,32.812 23.438,60.469 54.141,67.734 8.2031,96.797 70.312,178.36 157.03,214.22 v 18.984 h -90.938 c -100.31,0.23438 -180.94,82.266 -180.94,182.34 v 72.656 c 0,12.891 10.547,23.438 23.438,23.438 12.891,0 23.438,-10.547 23.438,-23.438 v -72.656 c 0,-69.844 51.562,-127.27 119.53,-134.06 v 15 c -39.844,10.781 -70.312,47.578 -70.312,91.172 v 99.375 c 0,12.891 11.484,22.969 24.375,22.969 h 28.359 c 12.891,0 23.438,-10.547 23.438,-23.438 0,-12.891 -10.547,-23.438 -23.438,-23.438 h -5.8594 v -75.469 c 0,-26.25 21.797,-47.578 48.047,-47.578 26.25,0 48.047,21.328 48.047,47.578 v 75.469 h -12.188 c -12.891,0 -23.438,10.547 -23.438,23.438 0,12.891 10.547,23.438 23.438,23.438 h 35.625 c 12.891,0 23.438,-10.078 23.438,-22.969 v -99.375 c 0,-44.297 -30.469,-81.562 -72.656,-91.641 v -15.703 h 71.25 l 62.344,65.625 v 119.06 c 0,12.891 10.547,23.438 23.438,23.438 12.891,0 23.438,-10.547 23.438,-23.438 v -118.59 l 67.734,-66.094 h 84.609 v 84.844 c -32.812,10.078 -55.312,39.609 -55.312,74.531 0,43.125 34.922,78.281 78.047,78.281 43.125,0 78.516,-35.156 78.516,-78.281 0,-34.922 -23.906,-64.688 -54.375,-74.531 v -82.031 c 60.938,12.188 107.81,66.797 107.81,132.42 v 72.656 c 0,12.891 10.547,23.438 23.438,23.438 12.891,0 23.438,-10.547 23.438,-23.438 v -72.656 c 0,-100.08 -81.094,-182.11 -181.41,-182.11 z M 128.91,597.42 c -2.3438,-3.9844 -5.8594,-9.375 -5.8594,-15.234 0,-5.859 3.5156,-11.25 5.8594,-15.234 z m 516.8,-15.234 c 0,5.8594 -1.1719,11.25 -5.8594,15.234 v -30.469 c 4.6875,3.9844 5.8594,9.375 5.8594,15.234 z M 302.12,295.306 c 0.46875,-0.70312 0.70312,-1.6406 1.1719,-2.3438 9.1406,-18.047 27.891,-30.469 49.219,-30.469 h 162.19 c 65.859,0 120.94,49.219 132.19,110.16 h -294.38 c -30.469,0 -55.312,-24.375 -55.312,-54.844 0,-8.2031 1.875,-15.703 4.9219,-22.5 z m -126.56,103.36 c 2.5781,-5.1562 6.0938,-26.016 18.984,-46.406 13.594,-21.562 32.578,-35.391 55.781,-41.484 -0.23438,2.3438 -0.23438,4.9219 -0.23438,7.2656 0,39.844 22.266,74.297 55.547,91.172 -48.75,48.75 -101.95,57.656 -130.08,58.594 z m 0.23438,229.92 v -113.91 c 42.188,-0.9375 118.83,-15.469 183.52,-95.156 h 233.67 v 209.06 c 0,114.84 -93.75,208.36 -208.59,208.36 -114.84,0 -208.59,-93.516 -208.59,-208.36 z m 211.41,324.61 -52.031,-54.375 v -20.156 c 16.406,3.2812 33.047,5.1562 50.391,5.1562 20.625,0 41.016,-2.5781 59.766,-7.0312 v 20.156 z m 229.22,136.64 c 0,17.344 -14.062,31.406 -31.406,31.406 -17.344,0 -31.406,-14.062 -31.406,-31.406 0,-17.344 14.062,-31.406 31.406,-31.406 17.344,0 31.406,14.062 31.406,31.406 z"
       id="path5"
       style="stroke-width:9.72652" /><path
       d="M 1097.1,32.812 H 761.48 c -3.2812,0 -6.3281,-0.9375 -9.6094,-0.9375 -41.25,0 -74.531,33.281 -74.531,74.531 v 187.5 c 0,34.922 27.656,62.344 62.578,62.344 h 40.547 v 98.438 c 0,34.688 27.422,63.281 62.109,63.281 h 98.672 l 0.9375,73.359 c 0,8.9062 5.1562,16.875 13.125,20.625 7.9688,3.9844 17.344,3.0469 24.375,-2.3438 l 46.406,-34.922 46.406,34.922 c 4.2188,3.0469 9.1406,4.6875 14.062,4.6875 3.5156,0 7.0312,-0.70312 10.312,-2.3438 7.9688,-3.9844 12.891,-11.719 13.125,-20.625 l 0.7031,-73.359 h 10.781 c 34.688,0 62.109,-28.594 62.109,-63.281 v -334.92 c 0,-48.047 -38.438,-86.953 -86.484,-86.953 z m -316.64,276.56 h -40.547 c -8.9062,0 -15.703,-6.5625 -15.703,-15.234 v -187.5 c 0,-15.469 11.719,-27.891 28.125,-27.891 v 0.9375 h 5.3906 c 12.422,2.3438 22.734,13.594 22.734,26.953 z m 283.12,235.31 -23.438,-17.812 c -8.4375,-6.3281 -19.688,-6.3281 -28.125,0 l -23.672,17.812 -0.9375,-79.688 c 12.188,4.4531 25.078,6.7969 38.672,6.7969 13.359,0 26.25,-2.3438 38.203,-6.5625 z m -37.5,-120 c -37.266,0 -67.5,-30.234 -67.5,-67.5 0,-37.266 30.234,-67.5 67.5,-67.5 37.266,0 67.5,30.234 67.5,67.5 0,37.266 -30.469,67.5 -67.5,67.5 z m 110.62,30 c 0,8.9062 -6.3281,16.406 -15.234,16.406 h -10.547 v -37.734 c 12.656,-14.297 23.438,-31.875 25.781,-51.328 z m 0,-122.34 c -11.719,-51.094 -56.719,-89.297 -111.09,-89.297 -63.047,0 -114.14,51.328 -114.14,114.38 0,28.828 10.781,55.312 28.359,75.469 l 0.46875,38.438 h -97.969 c -8.9062,0 -15.234,-7.5 -15.234,-16.406 v -348.28 c 0,-9.6094 -2.8125,-19.922 -6.0938,-26.953 h 275.85995 c 22.5,0 39.844,17.812 39.844,40.078 z"
       id="path6"
       style="stroke-width:9.72652" /><path
       d="M 1085.9,194.53 H 874.73 c -12.891,0 -23.438,10.547 -23.438,23.438 0,12.891 10.547,23.438 23.438,23.438 h 211.17 c 12.891,0 23.438,-10.547 23.438,-23.438 0,-12.891 -10.547,-23.438 -23.438,-23.438 z"
       id="path7"
       style="stroke-width:9.72652" /><path
       d="m 874.69,175.78 h 92.578 c 12.891,0 23.438,-10.547 23.438,-23.438 0,-12.891 -10.547,-23.438 -23.438,-23.438 H 874.69 c -12.891,0 -23.438,10.547 -23.438,23.438 0,12.891 10.547,23.438 23.438,23.438 z"
       id="path8"
       style="stroke-width:9.72652" /></g><g
     style="fill:none;stroke-width:0.926077"
     id="g9"
     transform="matrix(0.78168793,0,0,0.83906299,-0.67061322,111.71402)"><ellipse
       cx="50.333"
       cy="14"
       rx="40"
       ry="4"
       fill="#a5a5a5"
       fill-opacity="0.3"
       id="ellipse1"
       style="stroke-width:0.926077;filter:url(#filter0_f_2476_4033)" /></g></svg>
