<svg width="347" height="42" viewBox="0 0 347 42" fill="none" xmlns="http://www.w3.org/2000/svg">
<rect width="347" height="42" rx="20" fill="#2BD9FF"/>
<path d="M19.8594 20.9531H20.6562C21.401 20.9531 21.9583 20.8073 22.3281 20.5156C22.6979 20.2188 22.8828 19.7891 22.8828 19.2266C22.8828 18.6589 22.7266 18.2396 22.4141 17.9688C22.1068 17.6979 21.6224 17.5625 20.9609 17.5625H19.8594V20.9531ZM25.3281 19.1406C25.3281 20.3698 24.9427 21.3099 24.1719 21.9609C23.4062 22.612 22.3151 22.9375 20.8984 22.9375H19.8594V27H17.4375V15.5781H21.0859C22.4714 15.5781 23.5234 15.8776 24.2422 16.4766C24.9661 17.0703 25.3281 17.9583 25.3281 19.1406ZM33.9844 27L33.6641 25.8828H33.5391C33.2839 26.2891 32.9219 26.6042 32.4531 26.8281C31.9844 27.0469 31.4505 27.1562 30.8516 27.1562C29.8255 27.1562 29.0521 26.8828 28.5312 26.3359C28.0104 25.7839 27.75 24.9922 27.75 23.9609V18.2656H30.1328V23.3672C30.1328 23.9974 30.2448 24.4714 30.4688 24.7891C30.6927 25.1016 31.0495 25.2578 31.5391 25.2578C32.2057 25.2578 32.6875 25.0365 32.9844 24.5938C33.2812 24.1458 33.4297 23.4062 33.4297 22.375V18.2656H35.8125V27H33.9844ZM43.6719 18.1016C44.7031 18.1016 45.5104 18.5052 46.0938 19.3125C46.6771 20.1146 46.9688 21.2161 46.9688 22.6172C46.9688 24.0599 46.6667 25.1771 46.0625 25.9688C45.4635 26.7604 44.6458 27.1562 43.6094 27.1562C42.5833 27.1562 41.7786 26.7839 41.1953 26.0391H41.0312L40.6328 27H38.8125V14.8438H41.1953V17.6719C41.1953 18.0312 41.1641 18.6068 41.1016 19.3984H41.1953C41.7526 18.5339 42.5781 18.1016 43.6719 18.1016ZM42.9062 20.0078C42.3177 20.0078 41.888 20.1901 41.6172 20.5547C41.3464 20.9141 41.2057 21.5104 41.1953 22.3438V22.6016C41.1953 23.5391 41.3333 24.2109 41.6094 24.6172C41.8906 25.0234 42.3333 25.2266 42.9375 25.2266C43.4271 25.2266 43.8151 25.0026 44.1016 24.5547C44.3932 24.1016 44.5391 23.4453 44.5391 22.5859C44.5391 21.7266 44.3932 21.0833 44.1016 20.6562C43.8099 20.224 43.4115 20.0078 42.9062 20.0078ZM51.8203 27H49.4375V14.8438H51.8203V27ZM54.7266 16.0078C54.7266 15.2318 55.1589 14.8438 56.0234 14.8438C56.888 14.8438 57.3203 15.2318 57.3203 16.0078C57.3203 16.3776 57.2109 16.6667 56.9922 16.875C56.7786 17.0781 56.4557 17.1797 56.0234 17.1797C55.1589 17.1797 54.7266 16.7891 54.7266 16.0078ZM57.2109 27H54.8281V18.2656H57.2109V27ZM63.7656 27.1562C61.0469 27.1562 59.6875 25.6641 59.6875 22.6797C59.6875 21.1953 60.0573 20.0625 60.7969 19.2812C61.5365 18.4948 62.5964 18.1016 63.9766 18.1016C64.987 18.1016 65.8932 18.2995 66.6953 18.6953L65.9922 20.5391C65.6172 20.388 65.2682 20.2656 64.9453 20.1719C64.6224 20.0729 64.2995 20.0234 63.9766 20.0234C62.737 20.0234 62.1172 20.9036 62.1172 22.6641C62.1172 24.3724 62.737 25.2266 63.9766 25.2266C64.4349 25.2266 64.8594 25.1667 65.25 25.0469C65.6406 24.9219 66.0312 24.7292 66.4219 24.4688V26.5078C66.0365 26.7526 65.6458 26.9219 65.25 27.0156C64.8594 27.1094 64.3646 27.1562 63.7656 27.1562ZM74.5 27L74.0391 25.8125H73.9766C73.5755 26.3177 73.1615 26.6693 72.7344 26.8672C72.3125 27.0599 71.7604 27.1562 71.0781 27.1562C70.2396 27.1562 69.5781 26.9167 69.0938 26.4375C68.6146 25.9583 68.375 25.276 68.375 24.3906C68.375 23.4635 68.6979 22.7812 69.3438 22.3438C69.9948 21.901 70.974 21.6562 72.2812 21.6094L73.7969 21.5625V21.1797C73.7969 20.2943 73.3438 19.8516 72.4375 19.8516C71.7396 19.8516 70.9193 20.0625 69.9766 20.4844L69.1875 18.875C70.1927 18.349 71.3073 18.0859 72.5312 18.0859C73.7031 18.0859 74.6016 18.3411 75.2266 18.8516C75.8516 19.362 76.1641 20.138 76.1641 21.1797V27H74.5ZM73.7969 22.9531L72.875 22.9844C72.1823 23.0052 71.6667 23.1302 71.3281 23.3594C70.9896 23.5885 70.8203 23.9375 70.8203 24.4062C70.8203 25.0781 71.2057 25.4141 71.9766 25.4141C72.5286 25.4141 72.9688 25.2552 73.2969 24.9375C73.6302 24.6198 73.7969 24.1979 73.7969 23.6719V22.9531ZM87.4609 25.2578C87.8776 25.2578 88.3776 25.1667 88.9609 24.9844V26.7578C88.3672 27.0234 87.638 27.1562 86.7734 27.1562C85.8203 27.1562 85.125 26.9167 84.6875 26.4375C84.2552 25.9531 84.0391 25.2292 84.0391 24.2656V20.0547H82.8984V19.0469L84.2109 18.25L84.8984 16.4062H86.4219V18.2656H88.8672V20.0547H86.4219V24.2656C86.4219 24.6042 86.5156 24.8542 86.7031 25.0156C86.8958 25.1771 87.1484 25.2578 87.4609 25.2578ZM97.4219 27L97.1016 25.8828H96.9766C96.7214 26.2891 96.3594 26.6042 95.8906 26.8281C95.4219 27.0469 94.888 27.1562 94.2891 27.1562C93.263 27.1562 92.4896 26.8828 91.9688 26.3359C91.4479 25.7839 91.1875 24.9922 91.1875 23.9609V18.2656H93.5703V23.3672C93.5703 23.9974 93.6823 24.4714 93.9062 24.7891C94.1302 25.1016 94.487 25.2578 94.9766 25.2578C95.6432 25.2578 96.125 25.0365 96.4219 24.5938C96.7188 24.1458 96.8672 23.4062 96.8672 22.375V18.2656H99.25V27H97.4219ZM112.453 27L111.992 25.8125H111.93C111.529 26.3177 111.115 26.6693 110.688 26.8672C110.266 27.0599 109.714 27.1562 109.031 27.1562C108.193 27.1562 107.531 26.9167 107.047 26.4375C106.568 25.9583 106.328 25.276 106.328 24.3906C106.328 23.4635 106.651 22.7812 107.297 22.3438C107.948 21.901 108.927 21.6562 110.234 21.6094L111.75 21.5625V21.1797C111.75 20.2943 111.297 19.8516 110.391 19.8516C109.693 19.8516 108.872 20.0625 107.93 20.4844L107.141 18.875C108.146 18.349 109.26 18.0859 110.484 18.0859C111.656 18.0859 112.555 18.3411 113.18 18.8516C113.805 19.362 114.117 20.138 114.117 21.1797V27H112.453ZM111.75 22.9531L110.828 22.9844C110.135 23.0052 109.62 23.1302 109.281 23.3594C108.943 23.5885 108.773 23.9375 108.773 24.4062C108.773 25.0781 109.159 25.4141 109.93 25.4141C110.482 25.4141 110.922 25.2552 111.25 24.9375C111.583 24.6198 111.75 24.1979 111.75 23.6719V22.9531ZM125.141 27H122.758V21.8984C122.758 21.2682 122.646 20.7969 122.422 20.4844C122.198 20.1667 121.841 20.0078 121.352 20.0078C120.685 20.0078 120.203 20.2318 119.906 20.6797C119.609 21.1224 119.461 21.8594 119.461 22.8906V27H117.078V18.2656H118.898L119.219 19.3828H119.352C119.617 18.9609 119.982 18.6432 120.445 18.4297C120.914 18.2109 121.445 18.1016 122.039 18.1016C123.055 18.1016 123.826 18.3776 124.352 18.9297C124.878 19.4766 125.141 20.2682 125.141 21.3047V27ZM134.281 27L133.961 25.8828H133.836C133.581 26.2891 133.219 26.6042 132.75 26.8281C132.281 27.0469 131.747 27.1562 131.148 27.1562C130.122 27.1562 129.349 26.8828 128.828 26.3359C128.307 25.7839 128.047 24.9922 128.047 23.9609V18.2656H130.43V23.3672C130.43 23.9974 130.542 24.4714 130.766 24.7891C130.99 25.1016 131.346 25.2578 131.836 25.2578C132.503 25.2578 132.984 25.0365 133.281 24.5938C133.578 24.1458 133.727 23.4062 133.727 22.375V18.2656H136.109V27H134.281ZM147.172 27H144.789V21.8984C144.789 21.2682 144.677 20.7969 144.453 20.4844C144.229 20.1667 143.872 20.0078 143.383 20.0078C142.716 20.0078 142.234 20.2318 141.938 20.6797C141.641 21.1224 141.492 21.8594 141.492 22.8906V27H139.109V18.2656H140.93L141.25 19.3828H141.383C141.648 18.9609 142.013 18.6432 142.477 18.4297C142.945 18.2109 143.477 18.1016 144.07 18.1016C145.086 18.1016 145.857 18.3776 146.383 18.9297C146.909 19.4766 147.172 20.2682 147.172 21.3047V27ZM153.672 27.1562C150.953 27.1562 149.594 25.6641 149.594 22.6797C149.594 21.1953 149.964 20.0625 150.703 19.2812C151.443 18.4948 152.503 18.1016 153.883 18.1016C154.893 18.1016 155.799 18.2995 156.602 18.6953L155.898 20.5391C155.523 20.388 155.174 20.2656 154.852 20.1719C154.529 20.0729 154.206 20.0234 153.883 20.0234C152.643 20.0234 152.023 20.9036 152.023 22.6641C152.023 24.3724 152.643 25.2266 153.883 25.2266C154.341 25.2266 154.766 25.1667 155.156 25.0469C155.547 24.9219 155.938 24.7292 156.328 24.4688V26.5078C155.943 26.7526 155.552 26.9219 155.156 27.0156C154.766 27.1094 154.271 27.1562 153.672 27.1562ZM158.758 16.0078C158.758 15.2318 159.19 14.8438 160.055 14.8438C160.919 14.8438 161.352 15.2318 161.352 16.0078C161.352 16.3776 161.242 16.6667 161.023 16.875C160.81 17.0781 160.487 17.1797 160.055 17.1797C159.19 17.1797 158.758 16.7891 158.758 16.0078ZM161.242 27H158.859V18.2656H161.242V27ZM166.148 22.6172C166.148 23.4818 166.289 24.1354 166.57 24.5781C166.857 25.0208 167.32 25.2422 167.961 25.2422C168.596 25.2422 169.052 25.0234 169.328 24.5859C169.609 24.1432 169.75 23.487 169.75 22.6172C169.75 21.7526 169.609 21.1042 169.328 20.6719C169.047 20.2396 168.586 20.0234 167.945 20.0234C167.31 20.0234 166.852 20.2396 166.57 20.6719C166.289 21.099 166.148 21.7474 166.148 22.6172ZM172.188 22.6172C172.188 24.0391 171.812 25.151 171.062 25.9531C170.312 26.7552 169.268 27.1562 167.93 27.1562C167.091 27.1562 166.352 26.974 165.711 26.6094C165.07 26.2396 164.578 25.7109 164.234 25.0234C163.891 24.3359 163.719 23.5339 163.719 22.6172C163.719 21.1901 164.091 20.0807 164.836 19.2891C165.581 18.4974 166.628 18.1016 167.977 18.1016C168.815 18.1016 169.555 18.2839 170.195 18.6484C170.836 19.013 171.328 19.5365 171.672 20.2188C172.016 20.901 172.188 21.7005 172.188 22.6172ZM182.93 19.7969C182.424 19.7969 182.029 19.9583 181.742 20.2812C181.456 20.599 181.292 21.0521 181.25 21.6406H184.594C184.583 21.0521 184.43 20.599 184.133 20.2812C183.836 19.9583 183.435 19.7969 182.93 19.7969ZM183.266 27.1562C181.859 27.1562 180.76 26.7682 179.969 25.9922C179.177 25.2161 178.781 24.1172 178.781 22.6953C178.781 21.2318 179.146 20.1016 179.875 19.3047C180.609 18.5026 181.622 18.1016 182.914 18.1016C184.148 18.1016 185.109 18.4531 185.797 19.1562C186.484 19.8594 186.828 20.8307 186.828 22.0703V23.2266H181.195C181.221 23.9036 181.422 24.4323 181.797 24.8125C182.172 25.1927 182.698 25.3828 183.375 25.3828C183.901 25.3828 184.398 25.3281 184.867 25.2188C185.336 25.1094 185.826 24.9349 186.336 24.6953V26.5391C185.919 26.7474 185.474 26.901 185 27C184.526 27.1042 183.948 27.1562 183.266 27.1562ZM197.328 27H194.945V21.8984C194.945 21.2682 194.833 20.7969 194.609 20.4844C194.385 20.1667 194.029 20.0078 193.539 20.0078C192.872 20.0078 192.391 20.2318 192.094 20.6797C191.797 21.1224 191.648 21.8594 191.648 22.8906V27H189.266V18.2656H191.086L191.406 19.3828H191.539C191.805 18.9609 192.169 18.6432 192.633 18.4297C193.102 18.2109 193.633 18.1016 194.227 18.1016C195.242 18.1016 196.013 18.3776 196.539 18.9297C197.065 19.4766 197.328 20.2682 197.328 21.3047V27ZM213 27H210.617V21.8984C210.617 21.2682 210.505 20.7969 210.281 20.4844C210.057 20.1667 209.701 20.0078 209.211 20.0078C208.544 20.0078 208.062 20.2318 207.766 20.6797C207.469 21.1224 207.32 21.8594 207.32 22.8906V27H204.938V18.2656H206.758L207.078 19.3828H207.211C207.477 18.9609 207.841 18.6432 208.305 18.4297C208.773 18.2109 209.305 18.1016 209.898 18.1016C210.914 18.1016 211.685 18.3776 212.211 18.9297C212.737 19.4766 213 20.2682 213 21.3047V27ZM222.141 27L221.82 25.8828H221.695C221.44 26.2891 221.078 26.6042 220.609 26.8281C220.141 27.0469 219.607 27.1562 219.008 27.1562C217.982 27.1562 217.208 26.8828 216.688 26.3359C216.167 25.7839 215.906 24.9922 215.906 23.9609V18.2656H218.289V23.3672C218.289 23.9974 218.401 24.4714 218.625 24.7891C218.849 25.1016 219.206 25.2578 219.695 25.2578C220.362 25.2578 220.844 25.0365 221.141 24.5938C221.438 24.1458 221.586 23.4062 221.586 22.375V18.2656H223.969V27H222.141ZM230.586 19.7969C230.081 19.7969 229.685 19.9583 229.398 20.2812C229.112 20.599 228.948 21.0521 228.906 21.6406H232.25C232.24 21.0521 232.086 20.599 231.789 20.2812C231.492 19.9583 231.091 19.7969 230.586 19.7969ZM230.922 27.1562C229.516 27.1562 228.417 26.7682 227.625 25.9922C226.833 25.2161 226.438 24.1172 226.438 22.6953C226.438 21.2318 226.802 20.1016 227.531 19.3047C228.266 18.5026 229.279 18.1016 230.57 18.1016C231.805 18.1016 232.766 18.4531 233.453 19.1562C234.141 19.8594 234.484 20.8307 234.484 22.0703V23.2266H228.852C228.878 23.9036 229.078 24.4323 229.453 24.8125C229.828 25.1927 230.354 25.3828 231.031 25.3828C231.557 25.3828 232.055 25.3281 232.523 25.2188C232.992 25.1094 233.482 24.9349 233.992 24.6953V26.5391C233.576 26.7474 233.13 26.901 232.656 27C232.182 27.1042 231.604 27.1562 230.922 27.1562ZM243.016 24.4062C243.016 25.3021 242.703 25.9844 242.078 26.4531C241.458 26.9219 240.529 27.1562 239.289 27.1562C238.654 27.1562 238.112 27.112 237.664 27.0234C237.216 26.9401 236.797 26.8151 236.406 26.6484V24.6797C236.849 24.888 237.346 25.0625 237.898 25.2031C238.456 25.3438 238.945 25.4141 239.367 25.4141C240.232 25.4141 240.664 25.1641 240.664 24.6641C240.664 24.4766 240.607 24.3255 240.492 24.2109C240.378 24.0911 240.18 23.9583 239.898 23.8125C239.617 23.6615 239.242 23.487 238.773 23.2891C238.102 23.0078 237.607 22.7474 237.289 22.5078C236.977 22.2682 236.747 21.9948 236.602 21.6875C236.461 21.375 236.391 20.9922 236.391 20.5391C236.391 19.763 236.69 19.1641 237.289 18.7422C237.893 18.3151 238.747 18.1016 239.852 18.1016C240.904 18.1016 241.927 18.3307 242.922 18.7891L242.203 20.5078C241.766 20.3203 241.357 20.1667 240.977 20.0469C240.596 19.9271 240.208 19.8672 239.812 19.8672C239.109 19.8672 238.758 20.0573 238.758 20.4375C238.758 20.651 238.87 20.8359 239.094 20.9922C239.323 21.1484 239.82 21.3802 240.586 21.6875C241.268 21.9635 241.768 22.2214 242.086 22.4609C242.404 22.7005 242.638 22.9766 242.789 23.2891C242.94 23.6016 243.016 23.974 243.016 24.4062ZM249.055 25.2578C249.471 25.2578 249.971 25.1667 250.555 24.9844V26.7578C249.961 27.0234 249.232 27.1562 248.367 27.1562C247.414 27.1562 246.719 26.9167 246.281 26.4375C245.849 25.9531 245.633 25.2292 245.633 24.2656V20.0547H244.492V19.0469L245.805 18.25L246.492 16.4062H248.016V18.2656H250.461V20.0547H248.016V24.2656C248.016 24.6042 248.109 24.8542 248.297 25.0156C248.49 25.1771 248.742 25.2578 249.055 25.2578ZM257.703 18.1016C258.026 18.1016 258.294 18.125 258.508 18.1719L258.328 20.4062C258.135 20.3542 257.901 20.3281 257.625 20.3281C256.865 20.3281 256.271 20.5234 255.844 20.9141C255.422 21.3047 255.211 21.8516 255.211 22.5547V27H252.828V18.2656H254.633L254.984 19.7344H255.102C255.372 19.2448 255.737 18.8516 256.195 18.5547C256.659 18.2526 257.161 18.1016 257.703 18.1016ZM266.141 27L265.68 25.8125H265.617C265.216 26.3177 264.802 26.6693 264.375 26.8672C263.953 27.0599 263.401 27.1562 262.719 27.1562C261.88 27.1562 261.219 26.9167 260.734 26.4375C260.255 25.9583 260.016 25.276 260.016 24.3906C260.016 23.4635 260.339 22.7812 260.984 22.3438C261.635 21.901 262.615 21.6562 263.922 21.6094L265.438 21.5625V21.1797C265.438 20.2943 264.984 19.8516 264.078 19.8516C263.38 19.8516 262.56 20.0625 261.617 20.4844L260.828 18.875C261.833 18.349 262.948 18.0859 264.172 18.0859C265.344 18.0859 266.242 18.3411 266.867 18.8516C267.492 19.362 267.805 20.138 267.805 21.1797V27H266.141ZM265.438 22.9531L264.516 22.9844C263.823 23.0052 263.307 23.1302 262.969 23.3594C262.63 23.5885 262.461 23.9375 262.461 24.4062C262.461 25.0781 262.846 25.4141 263.617 25.4141C264.169 25.4141 264.609 25.2552 264.938 24.9375C265.271 24.6198 265.438 24.1979 265.438 23.6719V22.9531ZM280.219 27.1562C279.193 27.1562 278.388 26.7839 277.805 26.0391H277.68C277.763 26.7682 277.805 27.1901 277.805 27.3047V30.8438H275.422V18.2656H277.359L277.695 19.3984H277.805C278.362 18.5339 279.188 18.1016 280.281 18.1016C281.312 18.1016 282.12 18.5 282.703 19.2969C283.286 20.0938 283.578 21.2005 283.578 22.6172C283.578 23.5495 283.44 24.3594 283.164 25.0469C282.893 25.7344 282.505 26.2578 282 26.6172C281.495 26.9766 280.901 27.1562 280.219 27.1562ZM279.516 20.0078C278.927 20.0078 278.497 20.1901 278.227 20.5547C277.956 20.9141 277.815 21.5104 277.805 22.3438V22.6016C277.805 23.5391 277.943 24.2109 278.219 24.6172C278.5 25.0234 278.943 25.2266 279.547 25.2266C280.615 25.2266 281.148 24.3464 281.148 22.5859C281.148 21.7266 281.016 21.0833 280.75 20.6562C280.49 20.224 280.078 20.0078 279.516 20.0078ZM291.594 27L291.133 25.8125H291.07C290.669 26.3177 290.255 26.6693 289.828 26.8672C289.406 27.0599 288.854 27.1562 288.172 27.1562C287.333 27.1562 286.672 26.9167 286.188 26.4375C285.708 25.9583 285.469 25.276 285.469 24.3906C285.469 23.4635 285.792 22.7812 286.438 22.3438C287.089 21.901 288.068 21.6562 289.375 21.6094L290.891 21.5625V21.1797C290.891 20.2943 290.438 19.8516 289.531 19.8516C288.833 19.8516 288.013 20.0625 287.07 20.4844L286.281 18.875C287.286 18.349 288.401 18.0859 289.625 18.0859C290.797 18.0859 291.695 18.3411 292.32 18.8516C292.945 19.362 293.258 20.138 293.258 21.1797V27H291.594ZM290.891 22.9531L289.969 22.9844C289.276 23.0052 288.76 23.1302 288.422 23.3594C288.083 23.5885 287.914 23.9375 287.914 24.4062C287.914 25.0781 288.299 25.4141 289.07 25.4141C289.622 25.4141 290.062 25.2552 290.391 24.9375C290.724 24.6198 290.891 24.1979 290.891 23.6719V22.9531ZM288.242 17.3047V17.0938C289.138 16.0521 289.75 15.2682 290.078 14.7422H292.75V14.9062C292.479 15.1771 292.016 15.5807 291.359 16.1172C290.708 16.6484 290.198 17.0443 289.828 17.3047H288.242ZM303.82 18.2656V19.4766L302.453 19.8281C302.703 20.2188 302.828 20.6562 302.828 21.1406C302.828 22.0781 302.5 22.8099 301.844 23.3359C301.193 23.8568 300.286 24.1172 299.125 24.1172L298.695 24.0938L298.344 24.0547C298.099 24.2422 297.977 24.4505 297.977 24.6797C297.977 25.0234 298.414 25.1953 299.289 25.1953H300.773C301.732 25.1953 302.461 25.401 302.961 25.8125C303.466 26.224 303.719 26.8281 303.719 27.625C303.719 28.6458 303.292 29.4375 302.438 30C301.589 30.5625 300.367 30.8438 298.773 30.8438C297.555 30.8438 296.622 30.6302 295.977 30.2031C295.336 29.7812 295.016 29.1875 295.016 28.4219C295.016 27.8958 295.18 27.4557 295.508 27.1016C295.836 26.7474 296.318 26.4948 296.953 26.3438C296.708 26.2396 296.495 26.0703 296.312 25.8359C296.13 25.5964 296.039 25.3438 296.039 25.0781C296.039 24.7448 296.135 24.4688 296.328 24.25C296.521 24.026 296.799 23.8073 297.164 23.5938C296.706 23.3958 296.341 23.0781 296.07 22.6406C295.805 22.2031 295.672 21.6875 295.672 21.0938C295.672 20.1406 295.982 19.4036 296.602 18.8828C297.221 18.362 298.107 18.1016 299.258 18.1016C299.503 18.1016 299.792 18.125 300.125 18.1719C300.464 18.2135 300.68 18.2448 300.773 18.2656H303.82ZM297.078 28.2344C297.078 28.5625 297.234 28.8203 297.547 29.0078C297.865 29.1953 298.307 29.2891 298.875 29.2891C299.729 29.2891 300.398 29.1719 300.883 28.9375C301.367 28.7031 301.609 28.3828 301.609 27.9766C301.609 27.6484 301.466 27.4219 301.18 27.2969C300.893 27.1719 300.451 27.1094 299.852 27.1094H298.617C298.18 27.1094 297.812 27.2109 297.516 27.4141C297.224 27.6224 297.078 27.8958 297.078 28.2344ZM297.945 21.125C297.945 21.599 298.052 21.974 298.266 22.25C298.484 22.526 298.815 22.6641 299.258 22.6641C299.706 22.6641 300.034 22.526 300.242 22.25C300.451 21.974 300.555 21.599 300.555 21.125C300.555 20.0729 300.122 19.5469 299.258 19.5469C298.383 19.5469 297.945 20.0729 297.945 21.125ZM305.664 16.0078C305.664 15.2318 306.096 14.8438 306.961 14.8438C307.826 14.8438 308.258 15.2318 308.258 16.0078C308.258 16.3776 308.148 16.6667 307.93 16.875C307.716 17.0781 307.393 17.1797 306.961 17.1797C306.096 17.1797 305.664 16.7891 305.664 16.0078ZM308.148 27H305.766V18.2656H308.148V27ZM319.219 27H316.836V21.8984C316.836 21.2682 316.724 20.7969 316.5 20.4844C316.276 20.1667 315.919 20.0078 315.43 20.0078C314.763 20.0078 314.281 20.2318 313.984 20.6797C313.688 21.1224 313.539 21.8594 313.539 22.8906V27H311.156V18.2656H312.977L313.297 19.3828H313.43C313.695 18.9609 314.06 18.6432 314.523 18.4297C314.992 18.2109 315.523 18.1016 316.117 18.1016C317.133 18.1016 317.904 18.3776 318.43 18.9297C318.956 19.4766 319.219 20.2682 319.219 21.3047V27ZM327.719 27L327.258 25.8125H327.195C326.794 26.3177 326.38 26.6693 325.953 26.8672C325.531 27.0599 324.979 27.1562 324.297 27.1562C323.458 27.1562 322.797 26.9167 322.312 26.4375C321.833 25.9583 321.594 25.276 321.594 24.3906C321.594 23.4635 321.917 22.7812 322.562 22.3438C323.214 21.901 324.193 21.6562 325.5 21.6094L327.016 21.5625V21.1797C327.016 20.2943 326.562 19.8516 325.656 19.8516C324.958 19.8516 324.138 20.0625 323.195 20.4844L322.406 18.875C323.411 18.349 324.526 18.0859 325.75 18.0859C326.922 18.0859 327.82 18.3411 328.445 18.8516C329.07 19.362 329.383 20.138 329.383 21.1797V27H327.719ZM327.016 22.9531L326.094 22.9844C325.401 23.0052 324.885 23.1302 324.547 23.3594C324.208 23.5885 324.039 23.9375 324.039 24.4062C324.039 25.0781 324.424 25.4141 325.195 25.4141C325.747 25.4141 326.188 25.2552 326.516 24.9375C326.849 24.6198 327.016 24.1979 327.016 23.6719V22.9531Z" fill="#125B6B"/>
</svg>
