<svg width="94" height="17" viewBox="0 0 94 17" fill="none" xmlns="http://www.w3.org/2000/svg">
<g id="Group 2608923">
<path id="Vector" d="M11.1539 4.6718L11.2082 4.7693L11.317 4.79396L15.6753 5.78144C15.6753 5.78145 15.6753 5.78146 15.6754 5.78147C15.8022 5.81033 15.9209 5.8737 16.0191 5.96658C16.1173 6.05957 16.1916 6.17891 16.2334 6.31331L16.4721 6.23918L16.2334 6.31331C16.2751 6.44775 16.2825 6.59161 16.2546 6.73021C16.2267 6.86877 16.1648 6.99617 16.0761 7.10005C16.0761 7.10007 16.0761 7.1001 16.0761 7.10012L13.1053 10.5773L13.0363 10.6581L13.0465 10.7638L13.4961 15.4033L13.4962 15.4033C13.5099 15.5446 13.4878 15.6868 13.4328 15.8155C13.3777 15.9442 13.2919 16.0542 13.1851 16.1354C13.0784 16.2164 12.9543 16.2661 12.8253 16.2805C12.6964 16.2949 12.5657 16.2738 12.4461 16.2186L12.4461 16.2186L8.36556 14.3376L8.2609 14.2894L8.15624 14.3376L4.0757 16.2186L4.07565 16.2186C3.95607 16.2738 3.82543 16.2949 3.69646 16.2805C3.56746 16.2661 3.44335 16.2164 3.33666 16.1354C3.22988 16.0542 3.14409 15.9442 3.08903 15.8155C3.03396 15.6868 3.01194 15.5446 3.02565 15.4033L3.02565 15.4033L3.4753 10.7638L3.48555 10.6581L3.41652 10.5773L0.445643 7.10087L0.445578 7.10079C0.35673 6.99691 0.294661 6.86943 0.266684 6.73076C0.238702 6.59207 0.246036 6.4481 0.287792 6.31356C0.329536 6.17905 0.403906 6.05962 0.502281 5.96659C0.600578 5.87364 0.719375 5.81026 0.846396 5.78147L5.20475 4.79396L5.3136 4.7693L5.36791 4.6718L7.61211 0.642849C7.67971 0.521537 7.77576 0.422265 7.8896 0.353849L7.76082 0.139569L7.8896 0.353849C8.00334 0.28549 8.13133 0.25 8.2609 0.25C8.39047 0.25 8.51846 0.28549 8.6322 0.353849C8.74603 0.422258 8.84208 0.521518 8.90967 0.642815C8.90968 0.642827 8.90969 0.642838 8.90969 0.64285L11.1539 4.6718Z" fill="#FFE605" stroke="black" stroke-width="0.5"/>
<path id="Vector_2" d="M30.524 4.6718L30.5783 4.7693L30.6872 4.79396L35.0454 5.78144C35.0454 5.78145 35.0455 5.78146 35.0455 5.78147C35.1724 5.81033 35.291 5.8737 35.3892 5.96658C35.4875 6.05957 35.5618 6.17891 35.6035 6.31331L35.8422 6.23918L35.6035 6.31331C35.6452 6.44775 35.6526 6.59161 35.6247 6.73021C35.5968 6.86877 35.5349 6.99617 35.4463 7.10005C35.4462 7.10007 35.4462 7.1001 35.4462 7.10012L32.4754 10.5773L32.4064 10.6581L32.4166 10.7638L32.8663 15.4033L32.8663 15.4033C32.88 15.5446 32.858 15.6868 32.8029 15.8155C32.7478 15.9442 32.662 16.0542 32.5553 16.1354C32.4486 16.2164 32.3245 16.2661 32.1955 16.2805C32.0665 16.2949 31.9358 16.2738 31.8163 16.2186L31.8162 16.2186L27.7357 14.3376L27.631 14.2894L27.5264 14.3376L23.4458 16.2186L23.4458 16.2186C23.3262 16.2738 23.1955 16.2949 23.0666 16.2805C22.9376 16.2661 22.8135 16.2164 22.7068 16.1354C22.6 16.0542 22.5142 15.9442 22.4591 15.8155C22.4041 15.6868 22.3821 15.5446 22.3958 15.4033L22.3958 15.4033L22.8454 10.7638L22.8557 10.6581L22.7866 10.5773L19.8158 7.10087L19.8157 7.10079C19.7268 6.99691 19.6648 6.86943 19.6368 6.73076C19.6088 6.59207 19.6162 6.4481 19.6579 6.31356C19.6997 6.17905 19.774 6.05962 19.8724 5.96659C19.9707 5.87364 20.0895 5.81026 20.2165 5.78147L24.5749 4.79396L24.6837 4.7693L24.738 4.6718L26.9822 0.642849C27.0498 0.521537 27.1459 0.422265 27.2597 0.353849L27.1309 0.139569L27.2597 0.353849C27.3735 0.28549 27.5014 0.25 27.631 0.25C27.7606 0.25 27.8886 0.28549 28.0023 0.353849C28.1161 0.422258 28.2122 0.521518 28.2798 0.642815C28.2798 0.642827 28.2798 0.642838 28.2798 0.64285L30.524 4.6718Z" fill="#FFE605" stroke="black" stroke-width="0.5"/>
<path id="Vector_3" d="M49.8931 4.6718L49.9475 4.7693L50.0563 4.79396L54.4145 5.78144C54.4146 5.78145 54.4146 5.78146 54.4146 5.78147C54.5415 5.81033 54.6601 5.8737 54.7583 5.96658C54.8566 6.05957 54.9309 6.17891 54.9726 6.31331L55.2114 6.23918L54.9726 6.31331C55.0144 6.44775 55.0218 6.59161 54.9939 6.73021C54.966 6.86877 54.9041 6.99617 54.8154 7.10005C54.8154 7.10007 54.8154 7.1001 54.8153 7.10012L51.8445 10.5773L51.7755 10.6581L51.7858 10.7638L52.2354 15.4033L52.2354 15.4033C52.2491 15.5446 52.2271 15.6868 52.172 15.8155C52.117 15.9442 52.0312 16.0542 51.9244 16.1354C51.8177 16.2164 51.6936 16.2661 51.5646 16.2805C51.4356 16.2949 51.305 16.2738 51.1854 16.2186L51.1854 16.2186L47.1048 14.3376L47.0002 14.2894L46.8955 14.3376L42.815 16.2186L42.8149 16.2186C42.6953 16.2738 42.5647 16.2949 42.4357 16.2805C42.3067 16.2661 42.1826 16.2164 42.0759 16.1354C41.9691 16.0542 41.8833 15.9442 41.8283 15.8155C41.7732 15.6868 41.7512 15.5446 41.7649 15.4033L41.7649 15.4033L42.2146 10.7638L42.2248 10.6581L42.1558 10.5773L39.1849 7.10087L39.1848 7.10079C39.096 6.99691 39.0339 6.86943 39.0059 6.73076C38.978 6.59207 38.9853 6.4481 39.027 6.31356C39.0688 6.17905 39.1432 6.05962 39.2415 5.96659C39.3398 5.87364 39.4586 5.81026 39.5857 5.78147L43.944 4.79396L44.0529 4.7693L44.1072 4.6718L46.3514 0.642849C46.419 0.521537 46.515 0.422265 46.6289 0.353849L46.5001 0.139569L46.6289 0.353849C46.7426 0.28549 46.8706 0.25 47.0002 0.25C47.1297 0.25 47.2577 0.28549 47.3715 0.353849C47.4853 0.422258 47.5813 0.521518 47.6489 0.642815C47.6489 0.642827 47.6489 0.642838 47.6489 0.64285L49.8931 4.6718Z" fill="#FFE605" stroke="black" stroke-width="0.5"/>
<path id="Vector_4" d="M69.2623 4.6718L69.3166 4.7693L69.4254 4.79396L73.7837 5.78144C73.7837 5.78145 73.7837 5.78146 73.7838 5.78147C73.9106 5.81033 74.0293 5.8737 74.1275 5.96658C74.2257 6.05957 74.3 6.17891 74.3418 6.31331L74.5805 6.23918L74.3418 6.31331C74.3835 6.44775 74.3909 6.59161 74.363 6.73021C74.3351 6.86877 74.2732 6.99617 74.1845 7.10005C74.1845 7.10007 74.1845 7.1001 74.1845 7.10012L71.2137 10.5773L71.1447 10.6581L71.1549 10.7638L71.6045 15.4033L71.6046 15.4033C71.6183 15.5446 71.5962 15.6868 71.5412 15.8155C71.4861 15.9442 71.4003 16.0542 71.2935 16.1354C71.1868 16.2164 71.0627 16.2661 70.9337 16.2805C70.8048 16.2949 70.6741 16.2738 70.5545 16.2186L70.5545 16.2186L66.474 14.3376L66.3693 14.2894L66.2646 14.3376L62.1841 16.2186L62.1841 16.2186C62.0645 16.2738 61.9338 16.2949 61.8049 16.2805C61.6759 16.2661 61.5518 16.2164 61.4451 16.1354C61.3383 16.0542 61.2525 15.9442 61.1974 15.8155C61.1424 15.6868 61.1203 15.5446 61.134 15.4033L61.1341 15.4033L61.5837 10.7638L61.5939 10.6581L61.5249 10.5773L58.554 7.10087L58.554 7.10079C58.4651 6.99691 58.4031 6.86943 58.3751 6.73076C58.3471 6.59207 58.3544 6.4481 58.3962 6.31356C58.4379 6.17905 58.5123 6.05962 58.6107 5.96659C58.709 5.87364 58.8278 5.81026 58.9548 5.78147L63.3132 4.79396L63.422 4.7693L63.4763 4.6718L65.7205 0.642849C65.7881 0.521537 65.8842 0.422265 65.998 0.353849L65.8692 0.139569L65.998 0.353849C66.1117 0.28549 66.2397 0.25 66.3693 0.25C66.4989 0.25 66.6269 0.28549 66.7406 0.353849C66.8544 0.422258 66.9505 0.521518 67.0181 0.642815C67.0181 0.642827 67.0181 0.642838 67.0181 0.64285L69.2623 4.6718Z" fill="#FFE605" stroke="black" stroke-width="0.5"/>
<path id="Vector_5" d="M88.6324 4.6718L88.6867 4.7693L88.7956 4.79396L93.1538 5.78144C93.1538 5.78145 93.1539 5.78146 93.1539 5.78147C93.2808 5.81033 93.3994 5.8737 93.4976 5.96658C93.5959 6.05957 93.6702 6.17891 93.7119 6.31331L93.9506 6.23918L93.7119 6.31331C93.7536 6.44775 93.761 6.59161 93.7331 6.73021C93.7052 6.86877 93.6433 6.99617 93.5547 7.10005C93.5546 7.10007 93.5546 7.1001 93.5546 7.10012L90.5838 10.5773L90.5148 10.6581L90.525 10.7638L90.9747 15.4033L90.9747 15.4033C90.9884 15.5446 90.9664 15.6868 90.9113 15.8155C90.8562 15.9442 90.7704 16.0542 90.6637 16.1354C90.557 16.2164 90.4329 16.2661 90.3039 16.2805C90.1749 16.2949 90.0442 16.2738 89.9247 16.2186L89.9246 16.2186L85.8441 14.3376L85.7394 14.2894L85.6348 14.3376L81.5542 16.2186L81.5542 16.2186C81.4346 16.2738 81.3039 16.2949 81.175 16.2805C81.046 16.2661 80.9219 16.2164 80.8152 16.1354C80.7084 16.0542 80.6226 15.9442 80.5675 15.8155C80.5125 15.6868 80.4905 15.5446 80.5042 15.4033L80.5042 15.4033L80.9538 10.7638L80.9641 10.6581L80.895 10.5773L77.9242 7.10087L77.9241 7.10079C77.8352 6.99691 77.7732 6.86943 77.7452 6.73076C77.7172 6.59207 77.7246 6.4481 77.7663 6.31356C77.8081 6.17905 77.8824 6.05962 77.9808 5.96659C78.0791 5.87364 78.1979 5.81026 78.3249 5.78147L82.6833 4.79396L82.7921 4.7693L82.8464 4.6718L85.0906 0.642849C85.1582 0.521537 85.2543 0.422265 85.3681 0.353849L85.2393 0.139569L85.3681 0.353849C85.4819 0.28549 85.6098 0.25 85.7394 0.25C85.869 0.25 85.997 0.28549 86.1107 0.353849C86.2245 0.422258 86.3206 0.521518 86.3882 0.642815C86.3882 0.642827 86.3882 0.642838 86.3882 0.64285L88.6324 4.6718Z" fill="#FFE605" stroke="black" stroke-width="0.5"/>
</g>
</svg>
