<?xml version="1.0" encoding="UTF-8"?>
<svg width="1200pt" height="1200pt" version="1.1" viewBox="0 0 1200 1200" xmlns="http://www.w3.org/2000/svg">
 <path d="m614.35 777.65h92.469c7.5312 0 13.648 6.1172 13.648 13.883v92.469c0 7.5312-6.1172 13.883-13.648 13.883h-92.469c-7.5312 0-13.648-6.1172-13.648-13.883v-92.469c-0.23438-7.5312 5.8867-13.883 13.648-13.883zm78.59 27.762h-64.941v64.707h64.941zm310.82 139.53h92.469c7.7656 0 13.883 6.1172 13.883 13.648v92.469c0 7.5312-6.1172 13.648-13.883 13.648h-92.469c-7.5312 0-13.883-6.1172-13.883-13.648v-92.469c0.23438-7.2969 6.3516-13.648 13.883-13.648zm78.824 27.766h-64.941v64.941h64.941zm-273.41-27.766h92.469c7.5312 0 13.883 6.1172 13.883 13.648v92.469c0 7.5312-6.1172 13.648-13.883 13.648h-92.469c-7.5312 0-13.883-6.1172-13.883-13.648v-92.469c0-7.2969 6.1172-13.648 13.883-13.648zm78.59 27.766h-64.707v64.941h64.707zm-273.41-27.766h92.469c7.5312 0 13.648 6.1172 13.648 13.648v92.469c0 7.5312-6.1172 13.648-13.648 13.648h-92.469c-7.5312 0-13.648-6.1172-13.648-13.648v-92.469c-0.23438-7.2969 5.8867-13.648 13.648-13.648zm78.59 27.766h-64.941v64.941h64.941zm310.82-195.06h92.469c7.7656 0 13.883 6.1172 13.883 13.883v92.469c0 7.5312-6.1172 13.883-13.883 13.883h-92.469c-7.5312 0-13.883-6.1172-13.883-13.883v-92.469c0.23438-7.5312 6.3516-13.883 13.883-13.883zm78.824 27.762h-64.941v64.707h64.941zm-273.41-27.762h92.469c7.5312 0 13.883 6.1172 13.883 13.883v92.469c0 7.5312-6.1172 13.883-13.883 13.883h-92.469c-7.5312 0-13.883-6.1172-13.883-13.883v-92.469c0-7.5312 6.1172-13.883 13.883-13.883zm78.59 27.762h-64.707v64.707h64.707zm88.941-282.12h47.766c17.883 0 32.707 14.59 32.707 32.707v22.59h117.41c7.5312 0 13.883 6.1172 13.883 13.648l-0.003906 539.53c0 7.5312-6.1172 13.648-13.883 13.648l-638.35-0.003906c-7.7656 0-13.883-6.1172-13.883-13.648v-276.94c-24.234 7.293-49.648 11.766-75.293 13.176-116.47 5.6484-226.12-54.59-284.23-155.29-85.883-148.94-35.059-339.06 113.88-425.18 131.77-76 299.29-45.648 395.77 71.766 38.352 46.59 62.824 104 69.41 165.18 14.352 3.5312 24.707 16.469 24.707 31.766v22.59h177.65v-22.59c-0.003906-18.121 14.586-32.945 32.469-32.945zm80.469 82.824v20.707c0 17.883-14.59 32.707-32.707 32.707h-47.766c-18.117 0-32.707-14.59-32.707-32.707v-20.707h-177.65v20.707c0 17.883-14.59 32.707-32.707 32.707h-47.766c-17.883 0-32.707-14.59-32.707-32.707v-20.707h-103.53v105.41h610.82v-105.41zm-32.707-55.059h-47.766c-2.8242 0-5.1758 2.3516-5.1758 4.9414v22.59h57.883v-22.59c0.23828-2.8242-2.1172-4.9414-4.9414-4.9414zm-52.703 55.059v20.707c0 2.8242 2.3516 4.9414 5.1758 4.9414h47.766c2.8242 0 5.1758-2.3516 5.1758-4.9414v-20.707zm-285.65-82.824h27.766c-16.234-136.71-128.94-242.82-268-249.88v30.352c0 7.5312-6.1172 13.883-13.883 13.883-7.5312 0-13.648-6.1172-13.648-13.883v-30.59c-45.648 2.1172-89.41 15.531-128 37.648-82.352 48-136.71 133.41-141.41 232h30.352c7.5312 0 13.648 6.1172 13.648 13.648s-6.1172 13.648-13.648 13.648h-30.586c2.1172 45.648 15.293 89.41 37.648 128 48.469 82.824 134.12 136.71 232 141.65v-30.59c0-7.5312 6.1172-13.648 13.648-13.648s13.648 6.1172 13.648 13.648v30.59c26.352-1.1758 52-6.1172 76.469-14.59v-233.41c0-7.5312 6.1172-13.648 13.883-13.648h117.41v-22.59c-0.003906-17.41 14.82-32.234 32.703-32.234zm47.766 27.766h-47.766c-2.8242 0-5.1758 2.3516-5.1758 4.9414v71.059c0 2.8242 2.3516 4.9414 5.1758 4.9414h47.766c2.8242 0 5.1758-2.3516 5.1758-4.9414v-71.059c-0.23438-2.8242-2.3516-4.9414-5.1758-4.9414zm426.82 188h-610.82v378.82h610.82zm-359.53-682.12 136.47 82.59c8.9414 5.4102 8.9414 18.352-0.23438 23.766l-136.94 82.824c-9.1758 5.6484-20.941-1.1758-20.941-11.766l0.003906-70.59c-1.1758 0.23438-2.1172 0.46875-3.293 0.46875h-341.41c-88.234-0.70312-172.94 28.707-241.18 80.473-156.94 119.76-200.24 337.88-101.65 508.47 50.117 87.059 133.65 154.82 238.35 183.06 7.293 1.8828 11.766 9.4102 9.8828 16.941-2.1172 7.293-9.6484 11.766-16.941 9.6484-224-60-357.18-290.59-297.18-514.59 49.648-185.65 218.82-312.94 408.71-311.53l341.64 0.003906c1.1758 0 2.3516 0.23438 3.293 0.46875l0.003906-68.707c0-11.293 12.469-17.645 21.41-11.527zm102.82 94.352-96.707-58.59v116.94zm-485.65 283.3c0-7.5312 6.1172-13.648 13.648-13.648s13.648 6.1172 13.648 13.648v94.82l123.06-91.766c6.1172-4.707 14.824-3.293 19.293 2.8242s3.293 14.59-2.8242 19.293l-144.94 108.23c-8.9414 6.5898-21.883 0.23438-21.883-11.059z" fill="#d2d2d2"/>
</svg>
