<svg width="400" height="400" xmlns="http://www.w3.org/2000/svg" xmlns:xlink="http://www.w3.org/1999/xlink" xml:space="preserve" overflow="hidden"><g transform="translate(-240 0)"><path d="M439.984 68C437.531 68.0469 435.031 68.9219 432.609 70.5L280.609 190.5C276.703 194.375 273.952 202.719 277.984 207.875 282.015 213.032 290.468 213.719 295.359 209.375L439.983 95.2512 584.607 209.375C589.498 213.719 598.138 213.156 601.982 207.875 605.357 203.234 604.529 194.36 599.357 190.5L447.357 70.5C444.857 68.75 442.435 67.9531 439.982 68ZM343.984 185.124 319.984 204.124 319.984 320C319.984 326.625 325.343 332 331.984 332L407.984 332C414.609 332 419.984 326.625 419.984 320L419.984 272C419.984 260.719 428.703 252 439.984 252 451.265 252 459.984 260.719 459.984 272L459.984 320C459.984 326.625 465.343 332 471.984 332L547.984 332C554.609 332 559.984 326.625 559.984 320L559.984 204.124 535.984 185.124 535.984 308 483.984 308 483.984 272C483.984 247.828 464.156 228 439.984 228 415.812 228 395.984 247.828 395.984 272L395.984 308 343.984 308Z"/></g></svg>