<svg id="Layer_1" data-name="Layer 1" xmlns="http://www.w3.org/2000/svg" viewBox="0 0 337.6 100"><defs><style>.cls-1{fill:#387cff;}.cls-2{fill:#010816;}.cls-3{fill:#2bd9ff;}</style></defs><path class="cls-1" d="M52.1,65.07c-.19-.55-.37-1.1-.53-1.66a45,45,0,0,1-1.89-13c0-.3,0-.55,0-.79a14.68,14.68,0,0,1,0-1.74l5.47.35c0,.49,0,.85,0,1.25s0,.58,0,.93a39.73,39.73,0,0,0,1.65,11.39c.15.48.3,1,.47,1.45Z"/><rect class="cls-1" x="93.76" y="76.41" width="2.22" height="8.83"/><rect class="cls-1" x="62.15" y="44.79" width="2.22" height="8.83" transform="translate(14.05 112.46) rotate(-90)"/><rect class="cls-1" x="94.44" y="15.52" width="2.22" height="8.83" transform="translate(191.1 39.86) rotate(180)"/><rect class="cls-1" x="125.15" y="46.08" width="2.22" height="8.83" transform="translate(176.75 -75.77) rotate(90)"/><rect class="cls-1" x="26.54" y="23.91" width="4.68" height="52.52" transform="translate(-21.29 79.05) rotate(-90)"/><path class="cls-2" d="M94.87,5.25a45.2,45.2,0,0,0-35.64,17.4H21.51v4.68H56a45,45,0,0,0-4.9,11.73l5.31,1.38a39.72,39.72,0,1,1,6,32.9l-.56-.82c-.38-.56-.75-1.13-1.1-1.71l-.06,0v0H20.9v4.69H57.28A45.19,45.19,0,1,0,94.87,5.25Z"/><rect class="cls-3" x="27.22" y="59.85" width="15.17" height="3.64"/><rect class="cls-3" x="27.22" y="35.76" width="15.17" height="3.64"/><path class="cls-3" d="M95,59.59c6.17-9.61,22.26-28.76,44.71-37.71a.63.63,0,0,0-.31-1.22c-16.12,1.78-35.7,15.59-44.56,27A30.57,30.57,0,0,0,79.33,35.18a.75.75,0,0,0-.8,1.22c4.13,4.21,11.71,12.39,14.72,23A1,1,0,0,0,95,59.59Z"/><path d="M148.53,42.76l5-25h10.11q4.68,0,7.26,2.06a6.9,6.9,0,0,1,2.57,5.7A10,10,0,0,1,172,31a9.77,9.77,0,0,1-4.22,3.6,15.4,15.4,0,0,1-6.49,1.26h-8.11l3.07-2.64-1.93,9.54Zm7.58-8.86-2-2.75h7.47A6.9,6.9,0,0,0,166,29.84a4.57,4.57,0,0,0,1.61-3.77,3.1,3.1,0,0,0-1.24-2.73,5.82,5.82,0,0,0-3.44-.88h-7L159,19.64Z"/><path d="M174.34,42.76l5-25h10.19q4.68,0,7.23,2.06a6.86,6.86,0,0,1,2.56,5.66A10,10,0,0,1,197.84,31a9.69,9.69,0,0,1-4.22,3.56,15.43,15.43,0,0,1-6.45,1.25H179l3-2.54-1.9,9.54Zm7.57-8.86-2-2.75h7.47a6.9,6.9,0,0,0,4.47-1.31,4.57,4.57,0,0,0,1.61-3.77,3.13,3.13,0,0,0-1.22-2.73,5.8,5.8,0,0,0-3.46-.88h-7l3-2.82Zm8.55,8.86-5.11-9.08h6l5.18,9.08Z"/><path d="M213.58,43.19a14.29,14.29,0,0,1-6.52-1.38,9.93,9.93,0,0,1-4.2-3.82,10.78,10.78,0,0,1-1.47-5.66,15.77,15.77,0,0,1,1.11-5.94,14,14,0,0,1,3.16-4.77,14.87,14.87,0,0,1,4.9-3.16,16.8,16.8,0,0,1,6.31-1.15,14.29,14.29,0,0,1,6.54,1.38,10,10,0,0,1,4.18,3.83,10.78,10.78,0,0,1,1.47,5.66A15.68,15.68,0,0,1,228,34.11a13.79,13.79,0,0,1-3.17,4.77,14.69,14.69,0,0,1-4.89,3.17A16.84,16.84,0,0,1,213.58,43.19Zm.5-4.9a9.11,9.11,0,0,0,3.82-.76,8.15,8.15,0,0,0,2.86-2.15,9.87,9.87,0,0,0,1.81-3.13,10.93,10.93,0,0,0,.62-3.75,6.65,6.65,0,0,0-.78-3.27A5.51,5.51,0,0,0,220.09,23a7.92,7.92,0,0,0-3.72-.81,9.07,9.07,0,0,0-3.77.77,8.46,8.46,0,0,0-2.9,2.14,9.71,9.71,0,0,0-1.82,3.13,11,11,0,0,0-.63,3.75,6.65,6.65,0,0,0,.79,3.27,5.47,5.47,0,0,0,2.32,2.22A7.92,7.92,0,0,0,214.08,38.29Zm.72-22.58,5.36-5.15h6.18l-7,5.15Z"/><path d="M227.05,42.76l13.48-14.58L240,31.5l-7.37-13.76h6.15l5.18,9.83-2.57,0,8.86-9.8h6.58l-12.65,13.8.18-3.32,7.93,14.54H246l-5.44-10.43,2.65.1L234,42.76Z"/><path d="M254.61,42.76l5-25h5.79l-5,25Z"/><path d="M266.33,42.76l5-25h4.72l7.11,17.7h-2.5l13.83-17.7h5l-5,25H289.1L292.46,26h1.07l-11,14.08h-2.57L274,26l1.07.11-3.32,16.69Z"/><path d="M297.18,42.76l16.15-25h5.72l6.18,25h-5.79L314.55,20.6h2.32L303.36,42.76Zm6.65-5.36,2.39-4.4h12.9l.68,4.4Z"/><path d="M156.71,84.64h-7.82l6.76-33.76h7.81ZM175.42,70.8H159l1.31-6.61h16.44Zm3.42-19.92h7.77l-6.75,33.76h-7.77Z"/><path d="M205.37,85.22a19.34,19.34,0,0,1-8.8-1.86,13.41,13.41,0,0,1-5.67-5.16,14.57,14.57,0,0,1-2-7.64,21.13,21.13,0,0,1,1.5-8,18.51,18.51,0,0,1,4.27-6.44,19.83,19.83,0,0,1,6.6-4.27,22.62,22.62,0,0,1,8.51-1.54,19.32,19.32,0,0,1,8.83,1.85,13.57,13.57,0,0,1,5.64,5.16,14.58,14.58,0,0,1,2,7.65,21.13,21.13,0,0,1-1.5,8,18.72,18.72,0,0,1-4.26,6.44,19.87,19.87,0,0,1-6.61,4.27A22.58,22.58,0,0,1,205.37,85.22Zm.67-6.61a12.29,12.29,0,0,0,5.16-1,11.08,11.08,0,0,0,3.86-2.9,13.33,13.33,0,0,0,2.44-4.22,15,15,0,0,0,.84-5.06A8.88,8.88,0,0,0,217.28,61a7.42,7.42,0,0,0-3.13-3,10.66,10.66,0,0,0-5-1.09A12.22,12.22,0,0,0,204,58a11.36,11.36,0,0,0-3.91,2.89,13.19,13.19,0,0,0-2.45,4.22,14.83,14.83,0,0,0-.85,5.07,9,9,0,0,0,1.06,4.41,7.39,7.39,0,0,0,3.14,3A10.72,10.72,0,0,0,206,78.61Z"/><path d="M228.56,84.64l6.76-33.76h13.74q6.31,0,9.77,2.78a9.29,9.29,0,0,1,3.45,7.64,13.33,13.33,0,0,1-2,7.4,12.9,12.9,0,0,1-5.69,4.8,20.68,20.68,0,0,1-8.7,1.69h-11l4.1-3.42-2.55,12.87Zm10.23-12L236.09,69h10.08a9.31,9.31,0,0,0,6-1.76,6.17,6.17,0,0,0,2.18-5.09,4.25,4.25,0,0,0-1.64-3.69,7.93,7.93,0,0,0-4.68-1.18h-9.5l4.1-3.81Zm11.52,12-6.89-12.25h8.15l7,12.25Z"/><path d="M259.57,84.64l21.8-33.76h7.72l8.34,33.76h-7.81L283,54.74h3.14l-18.23,29.9Zm9-7.23,3.24-5.93h17.41l.91,5.93Z"/><path class="cls-3" d="M245.13,42a.9.9,0,0,0-1-.68c-13,1.44-29,12.42-36.67,21.94a25.46,25.46,0,0,0-12.65-9.95,1,1,0,0,0-1.21.42,1,1,0,0,0,.14,1.23c4.05,4.12,9.7,10.54,12,18.75a1.16,1.16,0,0,0,1,.83h.18a1.14,1.14,0,0,0,1-.53c1.44-2.25,14.72-22.2,36.68-30.95A.89.89,0,0,0,245.13,42Z"/></svg>