<?xml version="1.0" encoding="UTF-8"?>
<svg width="1200pt" height="1200pt" version="1.1" viewBox="0 0 1200 1200" xmlns="http://www.w3.org/2000/svg">
 <g fill="#ff814a">
  <path d="m600 370.8c93.602 0 170.4-76.801 170.4-170.4 0-93.602-76.797-170.4-170.4-170.4s-170.4 76.801-170.4 170.4c0 93.602 76.797 170.4 170.4 170.4zm-15.602-259.2v-19.203c0-4.8008 3.6016-8.3984 8.3984-8.3984h15.602c4.8008 0 8.3984 3.6016 8.3984 8.3984v19.199c24 1.1992 44.398 19.199 49.199 42 1.1992 4.8008-2.3984 9.6016-7.1992 9.6016h-15.602c-3.6016 0-6-2.3984-7.1992-6-2.3984-8.3984-10.801-15.602-20.398-15.602l-27.598 0.003906c-10.801 0-20.398 8.3984-21.602 19.199-1.1992 13.199 8.3984 22.801 21.602 22.801h24c28.801 0 52.801 24 52.801 51.602s-21.602 50.398-49.199 51.602v19.199c0 4.8008-3.6016 8.3984-8.3984 8.3984h-15.602c-4.8008 0-8.3984-3.6016-8.3984-8.3984v-19.199c-24-1.1992-44.398-19.199-49.199-42-1.1992-4.8008 2.3984-9.6016 7.1992-9.6016h15.602c3.6016 0 6 2.3984 7.1992 6 2.3984 8.3984 10.801 15.602 20.398 15.602l27.598-0.003907c10.801 0 20.398-8.3984 21.602-19.199 1.1992-13.199-8.3984-22.801-21.602-22.801h-24c-28.801 0-52.801-24-52.801-51.602 0-27.598 21.602-49.199 49.199-51.598z"/>
  <path d="m374.4 324c0-93.602-76.801-170.4-170.4-170.4-93.602 0-170.4 76.797-170.4 170.4s75.598 170.4 170.4 170.4 170.4-75.598 170.4-170.4zm-156 88.801v19.199c0 4.8008-3.6016 8.3984-8.3984 8.3984h-15.602c-4.8008 0-8.3984-3.6016-8.3984-8.3984v-19.199c-24-1.1992-44.398-19.199-49.199-42-1.1992-4.8008 2.3984-9.6016 7.1992-9.6016h15.602c3.6016 0 6 2.3984 7.1992 6 2.3984 8.3984 10.801 15.602 20.398 15.602h28.801c10.801 0 20.398-8.3984 21.602-19.199 1.1992-13.199-8.3984-22.801-21.602-22.801h-24c-28.801 0-52.801-24-52.801-51.602 0-27.602 21.602-50.398 49.199-51.602v-21.598c0-4.8008 3.6016-8.3984 8.3984-8.3984h15.602c4.8008 0 8.3984 3.6016 8.3984 8.3984v19.199c24 1.1992 44.398 19.199 49.199 42 1.1992 4.8008-2.3984 9.6016-7.1992 9.6016h-15.602c-3.6016 0-6-2.3984-7.1992-6-2.3984-8.3984-10.801-15.602-20.398-15.602h-25.199c-10.801 0-20.398 8.3984-21.602 19.199-1.1992 13.199 8.3984 22.801 21.602 22.801h24c28.801 0 52.801 24 52.801 51.602-2.3984 30-25.199 52.801-52.801 54z"/>
  <path d="m996 153.6c-93.602 0-170.4 76.801-170.4 170.4 0 93.602 76.797 170.4 170.4 170.4s170.4-75.598 170.4-170.4-75.598-170.4-170.4-170.4zm15.602 259.2v19.199c0 4.8008-3.6016 8.3984-8.3984 8.3984h-15.602c-4.8008 0-8.3984-3.6016-8.3984-8.3984v-19.199c-24-1.1992-44.398-19.199-49.199-42-1.1992-4.8008 2.3984-9.6016 7.1992-9.6016h15.602c3.6016 0 6 2.3984 7.1992 6 2.3984 8.3984 10.801 15.602 20.398 15.602h25.199c10.801 0 20.398-8.3984 21.602-19.199 1.1992-13.199-8.3984-22.801-21.602-22.801h-24c-28.801 0-52.801-24-52.801-51.602 0-27.602 21.602-50.398 49.199-51.602v-21.598c0-4.8008 3.6016-8.3984 8.3984-8.3984h15.602c4.8008 0 8.3984 3.6016 8.3984 8.3984v19.199c24 1.1992 44.398 19.199 49.199 42 1.1992 4.8008-2.3984 9.6016-7.1992 9.6016h-15.602c-3.6016 0-6-2.3984-7.1992-6-2.3984-8.3984-10.801-15.602-20.398-15.602h-25.199c-10.801 0-20.398 8.3984-21.602 19.199-1.1992 13.199 8.3984 22.801 21.602 22.801h24c28.801 0 52.801 24 52.801 51.602 0 30-21.602 52.801-49.199 54z"/>
  <path d="m739.2 603.6c0 76.875-62.32 139.2-139.2 139.2s-139.2-62.324-139.2-139.2c0-76.879 62.32-139.2 139.2-139.2s139.2 62.324 139.2 139.2"/>
  <path d="m902.4 542.4c-33.602-6-67.199 15.602-73.199 49.199l-15.602 81.602c-12 60-63.602 103.2-124.8 103.2h-177.6c-61.199 0-114-43.199-124.8-103.2l-15.602-81.602c-6-33.602-39.602-56.398-73.199-49.199-33.602 6-56.398 39.602-49.199 73.199l15.602 81.602c20.398 104.4 102 182.4 204 201.6l-9.6016 219.6c-1.1992 28.801 21.602 51.602 49.199 51.602h187.2c28.801 0 50.398-24 49.199-51.602l-9.6016-219.6c100.8-18 183.6-97.199 202.8-201.6l15.602-81.602c6.0039-33.598-16.797-67.199-50.398-73.199z"/>
 </g>
</svg>
