<svg id="Layer_2" data-name="Layer 2" xmlns="http://www.w3.org/2000/svg" viewBox="0 0 500 500"><defs><style>.cls-1{fill:#fff;}</style></defs><rect class="cls-1" x="304.42" y="223.15" width="5.55" height="22.04"/><rect class="cls-1" x="225.49" y="144.22" width="5.55" height="22.04" transform="translate(73.03 383.51) rotate(-90)"/><rect class="cls-1" x="306.12" y="71.12" width="5.55" height="22.04" transform="translate(617.79 164.29) rotate(180)"/><rect class="cls-1" x="382.79" y="147.43" width="5.55" height="22.04" transform="translate(544.02 -227.12) rotate(90)"/><path class="cls-1" d="M212.2,186.77a99.43,99.43,0,0,1-4.13-28.44c0-.87,0-1.62,0-2.32,0-.42,0-.82,0-1.24v-.36c0-.46,0-.95,0-1.51h0v-1.11H76.87v11.69H194.5a113.26,113.26,0,0,0,4.58,27.22c.42,1.39.86,2.77,1.33,4.14l13-4.44C213,189.2,212.57,188,212.2,186.77Z"/><path class="cls-1" d="M307.2,45.5a112.85,112.85,0,0,0-89,43.43H124v11.69h86.19A112.3,112.3,0,0,0,198,129.9l13.25,3.44a99.21,99.21,0,1,1,15,82.15l-1.41-2c-.94-1.41-1.88-2.82-2.76-4.28l-.12.07,0,0h-99.4l0,11.69h90.8A112.82,112.82,0,1,0,307.2,45.5Z"/><rect class="cls-1" x="138.3" y="181.81" width="37.87" height="9.08"/><rect class="cls-1" x="138.3" y="121.67" width="37.87" height="9.08"/><path class="cls-1" d="M307.43,181.17C322.84,157.16,363,109.35,419,87a1.58,1.58,0,0,0-.77-3C378,88.42,329.14,122.89,307,151.27c-7.59-12.14-21-25-38.61-31a1.87,1.87,0,0,0-2,3c10.31,10.5,29.23,30.92,36.76,57.29A2.38,2.38,0,0,0,307.43,181.17Z"/><path class="cls-1" d="M61,352.52,71.58,299.6H93q9.91,0,15.35,4.34T113.77,316a21.21,21.21,0,0,1-3.14,11.65,20.6,20.6,0,0,1-8.92,7.6A32.37,32.37,0,0,1,88,337.93H70.82l6.5-5.6-4.08,20.19Zm16-18.75L72.71,328h15.8q6,0,9.45-2.76t3.41-8q0-3.93-2.61-5.78c-1.74-1.24-4.17-1.85-7.3-1.85H76.57l6.5-6Z"/><path class="cls-1" d="M115.58,352.52l10.58-52.92h21.55q9.91,0,15.31,4.34t5.41,12a21,21,0,0,1-3.14,11.6,20.4,20.4,0,0,1-8.92,7.53,32.65,32.65,0,0,1-13.65,2.64H125.48l6.43-5.37-4,20.19Zm16-18.75L127.37,328h15.81q6,0,9.45-2.76t3.4-8q0-3.93-2.57-5.78c-1.71-1.24-4.16-1.85-7.34-1.85H131.23l6.43-6Zm18.07,18.75-10.81-19.2h12.77l11,19.2Z"/><path class="cls-1" d="M198.6,353.43a30.35,30.35,0,0,1-13.8-2.91,21.17,21.17,0,0,1-8.89-8.09,23,23,0,0,1-3.1-12,33.2,33.2,0,0,1,2.35-12.55,29.29,29.29,0,0,1,6.69-10.09,31.14,31.14,0,0,1,10.36-6.69,35.44,35.44,0,0,1,13.34-2.42,30.32,30.32,0,0,1,13.84,2.91,21.16,21.16,0,0,1,8.84,8.09,22.85,22.85,0,0,1,3.1,12A33.31,33.31,0,0,1,229,334.22a29.24,29.24,0,0,1-6.69,10.1A31.14,31.14,0,0,1,211.94,351,35.52,35.52,0,0,1,198.6,353.43Zm1.05-10.36a19.33,19.33,0,0,0,8.1-1.62,17.51,17.51,0,0,0,6-4.54,20.69,20.69,0,0,0,3.82-6.62,23.46,23.46,0,0,0,1.33-7.94,13.94,13.94,0,0,0-1.67-6.91,11.66,11.66,0,0,0-4.91-4.69,16.73,16.73,0,0,0-7.87-1.7,19.15,19.15,0,0,0-8,1.62,17.75,17.75,0,0,0-6.13,4.54,20.4,20.4,0,0,0-3.85,6.62,23.2,23.2,0,0,0-1.33,7.93,14,14,0,0,0,1.67,6.92,11.6,11.6,0,0,0,4.91,4.69A16.83,16.83,0,0,0,199.65,343.07Zm1.52-47.78,11.34-10.89h13.08l-14.9,10.89Z"/><path class="cls-1" d="M227.1,352.52l28.51-30.85-1.21,7L238.82,299.6h13l11,20.79-5.45-.08L276.1,299.6H290l-26.77,29.18.38-7,16.78,30.77H267.17l-11.49-22.08,5.6.23-19.44,21.85Z"/><path class="cls-1" d="M285.4,352.52,296,299.6h12.25l-10.59,52.92Z"/><path class="cls-1" d="M310.19,352.52l10.59-52.92h10L345.81,337h-5.3l29.26-37.42h10.59l-10.51,52.92H358.36l7.1-35.46h2.27l-23.36,29.79h-5.45L326.45,317l2.27.22-7,35.31Z"/><path class="cls-1" d="M375.44,352.52l34.18-52.92h12.09l13.09,52.92H422.55l-10.36-46.88h4.91l-28.58,46.88Zm14.07-11.34,5.06-9.3h27.3l1.43,9.3Z"/><path class="cls-1" d="M107.11,441.12H90.58l14.29-71.42h16.52Zm39.58-29.28H111.91l2.75-14h34.79Zm7.25-42.14h16.42l-14.28,71.42H139.66Z"/><path class="cls-1" d="M210.05,442.34q-10.81,0-18.62-3.92a28.58,28.58,0,0,1-12-10.92,30.87,30.87,0,0,1-4.18-16.17,44.93,44.93,0,0,1,3.16-16.94,39.76,39.76,0,0,1,9-13.62,42,42,0,0,1,14-9,47.77,47.77,0,0,1,18-3.27q10.91,0,18.67,3.93A28.7,28.7,0,0,1,250,383.32a30.87,30.87,0,0,1,4.19,16.17,44.9,44.9,0,0,1-3.17,16.94,39.57,39.57,0,0,1-9,13.62,42.27,42.27,0,0,1-14,9A48,48,0,0,1,210.05,442.34Zm1.43-14a25.88,25.88,0,0,0,10.92-2.2,23.52,23.52,0,0,0,8.16-6.12,28.21,28.21,0,0,0,5.15-8.92,31.69,31.69,0,0,0,1.78-10.72,18.83,18.83,0,0,0-2.24-9.33,15.73,15.73,0,0,0-6.63-6.33A22.65,22.65,0,0,0,218,382.46a25.77,25.77,0,0,0-10.76,2.19,23.75,23.75,0,0,0-8.27,6.12,27.64,27.64,0,0,0-5.2,8.93A31.59,31.59,0,0,0,192,410.41a18.85,18.85,0,0,0,2.25,9.34,15.65,15.65,0,0,0,6.63,6.32A22.62,22.62,0,0,0,211.48,428.37Z"/><path class="cls-1" d="M259.12,441.12l14.29-71.42h29.07q13.36,0,20.66,5.87t7.3,16.17a28.33,28.33,0,0,1-4.24,15.66,27.42,27.42,0,0,1-12,10.15,43.91,43.91,0,0,1-18.41,3.57H272.49l8.67-7.24-5.41,27.24Zm21.63-25.3L275,408h21.32q8.16,0,12.75-3.72t4.59-10.76q0-5.31-3.46-7.81t-9.9-2.5h-20.1l8.67-8.06Zm24.38,25.3-14.58-25.91h17.24l14.79,25.91Z"/><path class="cls-1" d="M324.72,441.12l46.11-71.42h16.33l17.65,71.42H388.28l-14-63.25h6.64l-38.57,63.25Zm19-15.3,6.83-12.55h36.83l1.94,12.55Z"/><path class="cls-1" d="M293.93,346.71a1.9,1.9,0,0,0-2.09-1.46c-27.57,3.05-61.41,26.27-77.57,46.42-3.5-5.29-12.08-16-26.78-21.05a2.13,2.13,0,0,0-2.54.88,2.09,2.09,0,0,0,.29,2.61c8.56,8.71,20.52,22.3,25.48,39.67a2.4,2.4,0,0,0,2,1.75,2.45,2.45,0,0,0,2.45-1.11c3-4.75,31.13-46.94,77.59-65.45A1.9,1.9,0,0,0,293.93,346.71Z"/></svg>