<?xml version="1.0" encoding="UTF-8" standalone="no"?>
<svg
   width="114.58372"
   height="119.85826"
   xml:space="preserve"
   overflow="hidden"
   version="1.1"
   id="svg5"
   sodipodi:docname="register.svg"
   inkscape:version="1.3.2 (091e20e, 2023-11-25, custom)"
   xmlns:inkscape="http://www.inkscape.org/namespaces/inkscape"
   xmlns:sodipodi="http://sodipodi.sourceforge.net/DTD/sodipodi-0.dtd"
   xmlns="http://www.w3.org/2000/svg"
   xmlns:svg="http://www.w3.org/2000/svg"><defs
     id="defs5"><filter
       id="filter0_f_2476_4033"
       x="0.85790402"
       y="0.52489698"
       width="98.950203"
       height="26.950199"
       filterUnits="userSpaceOnUse"
       color-interpolation-filters="sRGB"><feFlood
         flood-opacity="0"
         result="BackgroundImageFix"
         id="feFlood1" /><feBlend
         mode="normal"
         in="SourceGraphic"
         in2="BackgroundImageFix"
         result="shape"
         id="feBlend1" /><feGaussianBlur
         stdDeviation="4.73755"
         result="effect1_foregroundBlur_2476_4033"
         id="feGaussianBlur1" /></filter></defs><sodipodi:namedview
     id="namedview5"
     pagecolor="#ffffff"
     bordercolor="#000000"
     borderopacity="0.25"
     inkscape:showpageshadow="2"
     inkscape:pageopacity="0.0"
     inkscape:pagecheckerboard="0"
     inkscape:deskcolor="#d1d1d1"
     inkscape:zoom="7.3909091"
     inkscape:cx="45.393604"
     inkscape:cy="55.541205"
     inkscape:window-width="1920"
     inkscape:window-height="1009"
     inkscape:window-x="-8"
     inkscape:window-y="-8"
     inkscape:window-maximized="1"
     inkscape:current-layer="g5" /><g
     style="fill:none;stroke-width:0.900146"
     id="g6"
     transform="matrix(1.1019119,0,0,1.1200259,2.0293394,89.085441)"><ellipse
       cx="50.333"
       cy="14"
       rx="40"
       ry="4"
       fill="#a5a5a5"
       fill-opacity="0.3"
       id="ellipse1"
       style="stroke-width:0.900146;filter:url(#filter0_f_2476_4033)" /></g><g
     transform="translate(-49.402217,-66.835186)"
     id="g5"
     style="display:inline"><path
       d="M 147.31754,129.49588 V 73.57291 c -0.006,-3.72007 -3.26549,-6.732816 -7.29164,-6.737724 H 56.693812 c -4.025876,0.0041 -7.286264,3.017439 -7.291595,6.737724 v 88.55208 c 0.0052,3.71996 3.265602,6.73279 7.291595,6.73766 h 69.853618 c 5.74477,3.61857 12.91135,4.74982 19.63574,3.09893 6.7187,-1.64533 12.33312,-5.91427 15.38035,-11.68945 3.04604,-5.77509 3.22904,-12.48912 0.49453,-18.39921 -2.73472,-5.90984 -8.11477,-10.42402 -14.74013,-12.37819 z M 55.652257,162.12499 V 73.57291 c 0.0052,-0.529447 0.468717,-0.957741 1.04168,-0.962546 h 83.332093 c 0.57284,0.0041 1.03635,0.433099 1.04169,0.962546 v 54.91149 c -0.34895,-0.0142 -0.6875,-0.0485 -1.04169,-0.0485 -5.84886,-0.004 -11.4946,1.96842 -15.87442,5.54412 -4.38018,3.58054 -7.19262,8.51357 -7.90618,13.87501 -0.71357,5.36136 0.724,10.78029 4.03629,15.23161 H 56.694667 c -0.572845,-0.004 -1.036349,-0.43311 -1.041562,-0.96242 z m 84.373413,4.81248 c -7.16133,0 -13.61981,-3.98479 -16.35978,-10.10164 -2.73957,-6.11199 -1.22916,-13.15314 3.83851,-17.83107 5.06246,-4.68282 12.68213,-6.07848 19.29704,-3.54698 6.61966,2.53153 10.93206,8.49911 10.93206,15.11704 -0.009,9.03324 -7.9321,16.35267 -17.70771,16.36252 z"
       fill="#70c041"
       id="path1"
       style="stroke-width:1.04881" /><path
       d="m 145.93226,142.31645 -9.26025,10.51559 -2.88539,-2.41112 v -0.004 c -1.27611,-1.06839 -3.25522,-0.97687 -4.41146,0.20696 -1.15621,1.18396 -1.05732,3.00787 0.22399,4.07624 l 5.32285,4.45187 c 0.57805,0.48116 1.32288,0.75073 2.09888,0.74583 0.0776,0 0.15625,0 0.23442,-0.009 v 0.004 c 0.85403,-0.063 1.64579,-0.44283 2.18736,-1.05881 l 11.3436,-12.8735 c 1.08857,-1.23679 0.88541,-3.05605 -0.4531,-4.06185 -1.33852,-1.00596 -3.30736,-0.82297 -4.40101,0.41872 z"
       fill="#70c041"
       id="path2"
       style="stroke-width:1.04881" /><path
       d="m 69.19339,126.51191 h 58.33249 c 1.72395,0 3.12503,-1.29462 3.12503,-2.88764 V 81.273307 c 0,-1.593009 -1.40108,-2.887667 -3.12503,-2.887667 H 69.19339 c -1.72398,0 -3.125046,1.294658 -3.125046,2.887667 v 42.350963 c 0,1.59302 1.401066,2.88764 3.125046,2.88764 z m 15.130439,-5.77508 0.593689,-1.37168 h 0.0052 c 0.760474,-1.77094 2.3333,-3.13788 4.291695,-3.73946 l 5.749974,-1.77103 c 1.416586,-0.43796 2.46869,-1.54958 2.744684,-2.90679 0.276119,-1.39092 -0.286419,-2.80569 -1.468703,-3.69609 -2.15633,-1.79028 -3.354135,-4.36518 -3.270742,-7.04085 -0.479263,-4.071426 2.6196,-7.767493 7.010163,-8.349805 4.390581,0.582312 7.489571,4.278499 7.010281,8.349805 0.0829,2.67581 -1.10928,5.25057 -3.26551,7.03596 -1.17705,0.89033 -1.74482,2.30533 -1.46881,3.69126 0.27089,1.36207 1.32289,2.48338 2.75003,2.92127 l 5.73956,1.76627 h 0.006 c 1.95827,0.60158 3.52589,1.96852 4.29158,3.73946 l 0.59379,1.37168 z M 72.318797,84.160397 h 52.081883 v 36.576433 h -2.14579 c -0.0476,-0.25506 -0.11985,-0.50531 -0.21356,-0.75085 l -1.19792,-2.76235 c -1.44265,-3.34974 -4.41654,-5.93875 -8.11962,-7.07459 l -2.61961,-0.80856 c 2.06238,-2.66142 3.15619,-5.85689 3.13534,-9.12955 0.51044,-7.266955 -5.40099,-13.562186 -13.260164,-14.125212 -7.859281,0.563026 -13.770467,6.85792 -13.260168,14.125212 -0.0208,3.27254 1.078043,6.46813 3.135345,9.12955 l -2.619718,0.80856 c -3.702973,1.13584 -6.67178,3.72485 -8.119635,7.0697 l -1.197801,2.76244 h 0.0052 c -0.0938,0.24551 -0.166661,0.50059 -0.218783,0.75565 h -5.38543 z"
       fill="#70c041"
       id="path3"
       style="stroke-width:1.04881" /><path
       d="M 110.85944,132.28641 H 69.19339 c -1.72398,0 -3.125046,1.29463 -3.125046,2.88767 0,1.59303 1.401066,2.88766 3.125046,2.88766 h 41.66605 c 1.72397,0 3.12503,-1.29463 3.12503,-2.88766 0,-1.59304 -1.40106,-2.88767 -3.12503,-2.88767 z"
       fill="#70c041"
       id="path4"
       style="stroke-width:1.04881" /><path
       d="M 102.52623,145.76233 H 69.19339 c -1.72398,0 -3.125046,1.29474 -3.125046,2.88765 0,1.59303 1.401066,2.88767 3.125046,2.88767 h 33.33284 c 1.72395,0 3.12504,-1.29464 3.12504,-2.88767 0,-1.59291 -1.40109,-2.88765 -3.12504,-2.88765 z"
       fill="#70c041"
       id="path5"
       style="stroke-width:1.04881" /></g></svg>
