<?xml version="1.0" encoding="UTF-8" standalone="no"?>
<svg
   width="122.4453pt"
   height="129.22865pt"
   version="1.1"
   viewBox="0 0 122.4453 129.22865"
   id="svg13"
   sodipodi:docname="security.svg"
   xml:space="preserve"
   inkscape:version="1.3.2 (091e20e, 2023-11-25, custom)"
   xmlns:inkscape="http://www.inkscape.org/namespaces/inkscape"
   xmlns:sodipodi="http://sodipodi.sourceforge.net/DTD/sodipodi-0.dtd"
   xmlns="http://www.w3.org/2000/svg"
   xmlns:svg="http://www.w3.org/2000/svg"><defs
     id="defs13"><filter
       id="filter0_f_2476_4033"
       x="0.85790402"
       y="0.52489698"
       width="98.950203"
       height="26.950199"
       filterUnits="userSpaceOnUse"
       color-interpolation-filters="sRGB"><feFlood
         flood-opacity="0"
         result="BackgroundImageFix"
         id="feFlood1" /><feBlend
         mode="normal"
         in="SourceGraphic"
         in2="BackgroundImageFix"
         result="shape"
         id="feBlend1" /><feGaussianBlur
         stdDeviation="4.73755"
         result="effect1_foregroundBlur_2476_4033"
         id="feGaussianBlur1" /></filter></defs><sodipodi:namedview
     id="namedview13"
     pagecolor="#ffffff"
     bordercolor="#000000"
     borderopacity="0.25"
     inkscape:showpageshadow="2"
     inkscape:pageopacity="0.0"
     inkscape:pagecheckerboard="0"
     inkscape:deskcolor="#d1d1d1"
     inkscape:document-units="pt"
     inkscape:zoom="0.508125"
     inkscape:cx="778.35178"
     inkscape:cy="780.3198"
     inkscape:window-width="1920"
     inkscape:window-height="1009"
     inkscape:window-x="-8"
     inkscape:window-y="-8"
     inkscape:window-maximized="1"
     inkscape:current-layer="svg13" /><g
     fill="#007335"
     id="g13"
     transform="matrix(0.10322644,0,0,0.10322644,0.51058143,-1.4923446)"
     style="stroke-width:9.68744"><path
       d="m 1162.5,112.5 c -81.938,0 -160.48,-25.18 -227.16,-72.805 L 899.996,14.457 864.652,39.695 C 797.976,87.32 719.432,112.5 637.492,112.5 h -18.75 v 198.71 c 0,2.5117 0.13281,5.0234 0.14844,7.5391 h -18.898 c -30.77,0 -57.898,15.113 -75,38.082 -17.102,-22.969 -44.23,-38.082 -75,-38.082 h -356.25 v 187.5 h -75 v 543.75 c 0,31.012 25.238,56.25 56.25,56.25 h 358.14 c 8.7188,42.73 46.574,75 91.855,75 45.281,0 83.156,-32.27 91.855,-75 h 358.14 c 31.01196,0 56.24996,-25.238 56.24996,-56.25 v -335.85 l 11.832,-5.0625 2.9609,-3.8047 c 87.188,-112.11 135.21,-252.05 135.21,-394.07 v -198.71 z M 600,356.25 h 20.477 c 9,126.32 55.52,248.81 133.48,349.01 l 2.9609,3.8047 143.08,61.332 18.75,-8.043 v 231.39 h -375 v -581.25 c 0,-31.012 25.238,-56.25 56.25,-56.25 z m -468.75,0 H 450 c 31.012,0 56.25,25.238 56.25,56.25 v 581.25 h -375 z M 993.75,1050 c 0,10.352 -8.3984,18.75 -18.75,18.75 H 581.25 v 18.75 c 0,31.012 -25.238,56.25 -56.25,56.25 -31.012,0 -56.25,-25.238 -56.25,-56.25 v -18.75 H 75 c -10.352,0 -18.75,-8.3984 -18.75,-18.75 V 543.75 h 37.5 v 487.5 h 862.5 V 746.29 l 37.5,-16.07 z m 150,-738.79 c 0,132.11 -44.137,262.33 -124.37,367.22 L 900,729.602 780.62,678.434 C 700.39,573.544 656.25,443.344 656.25,311.214 v -161.62 c 83.008,-3.5625 162.23,-30.824 230.2,-79.367 l 13.555,-9.6758 13.555,9.6758 c 67.969,48.543 147.19,75.805 230.2,79.387 z"
       id="path1"
       style="stroke-width:9.68744" /><path
       d="m 806.25,262.5 v 93.75 h -14.137 l -36.957,129.34 c -3.4141,11.926 -5.1562,24.301 -5.1562,36.789 0,73.82 60.055,133.88 133.88,133.88 h 32.27 c 73.82,0 133.88,-60.055 133.88,-133.88 0,-12.488 -1.7422,-24.863 -5.1367,-36.77 l -36.996,-129.36 h -14.137 v -93.75 c 0,-51.695 -42.055,-93.75 -93.75,-93.75 -51.695,0 -93.75,42.055 -93.75,93.75 z m 202.55,233.42 c 2.457,8.5703 3.6953,17.477 3.6953,26.457 0,53.137 -43.238,96.375 -96.375,96.375 h -32.25 c -53.137,0 -96.375,-43.238 -96.375,-96.375 0,-8.9805 1.2383,-17.887 3.7109,-26.477 l 29.176,-102.15 h 159.23 z M 956.245,262.5 v 93.75 h -112.5 V 262.5 c 0,-31.012 25.238,-56.25 56.25,-56.25 31.012,0 56.25,25.238 56.25,56.25 z"
       id="path2"
       style="stroke-width:9.68744" /><path
       d="m 900,412.5 c -31.012,0 -56.25,25.238 -56.25,56.25 0,24.414 15.73,45.039 37.5,52.801 V 600 h 37.5 v -78.449 c 21.77,-7.7617 37.5,-28.387 37.5,-52.801 0,-31.012 -25.238,-56.25 -56.25,-56.25 z m 0,75 c -10.352,0 -18.75,-8.418 -18.75,-18.75 0,-10.332 8.3984,-18.75 18.75,-18.75 10.3516,0 18.75,8.418 18.75,18.75 0,10.332 -8.3984,18.75 -18.75,18.75 z"
       id="path3"
       style="stroke-width:9.68744" /><path
       d="m 637.5,881.25 c -10.352,0 -18.75,-8.3984 -18.75,-18.75 h -37.5 c 0,24.414 15.73,45.039 37.5,52.801 v 40.949 h 37.5 v -40.949 c 21.77,-7.7617 37.5,-28.387 37.5,-52.801 0,-31.012 -25.238,-56.25 -56.25,-56.25 -10.352,0 -18.75,-8.3984 -18.75,-18.75 0,-10.3516 8.3984,-18.75 18.75,-18.75 10.3516,0 18.75,8.3984 18.75,18.75 h 37.5 c 0,-24.414 -15.73,-45.039 -37.5,-52.801 V 693.75 h -37.5 v 40.949 c -21.77,7.7617 -37.5,28.387 -37.5,52.801 0,31.012 25.238,56.25 56.25,56.25 10.352,0 18.75,8.3984 18.75,18.75 0,10.3516 -8.3984,18.75 -18.75,18.75 z"
       id="path4"
       style="stroke-width:9.68744" /><path
       d="m 168.75,393.75 h 37.5 v 37.5 h -37.5 z"
       id="path5"
       style="stroke-width:9.68744" /><path
       d="m 243.75,393.75 h 225 v 37.5 h -225 z"
       id="path6"
       style="stroke-width:9.68744" /><path
       d="m 168.75,468.75 h 300 v 37.5 h -300 z"
       id="path7"
       style="stroke-width:9.68744" /><path
       d="m 168.75,543.75 h 300 v 37.5 h -300 z"
       id="path8"
       style="stroke-width:9.68744" /><path
       d="m 168.75,618.75 h 300 v 37.5 h -300 z"
       id="path9"
       style="stroke-width:9.68744" /><path
       d="m 168.75,693.75 h 300 v 37.5 h -300 z"
       id="path10"
       style="stroke-width:9.68744" /><path
       d="m 168.75,768.75 h 300 v 37.5 h -300 z"
       id="path11"
       style="stroke-width:9.68744" /><path
       d="m 168.75,843.75 h 150 v 37.5 h -150 z"
       id="path12"
       style="stroke-width:9.68744" /><path
       d="m 356.25,843.75 h 112.5 v 37.5 h -112.5 z"
       id="path13"
       style="stroke-width:9.68744" /></g><g
     style="fill:none;stroke-width:0.821526"
     id="g14"
     transform="matrix(1.111273,0,0,0.75,-0.95336557,108.62233)"><ellipse
       cx="50.333"
       cy="14"
       rx="40"
       ry="4"
       fill="#a5a5a5"
       fill-opacity="0.3"
       id="ellipse1"
       style="stroke-width:0.821526;filter:url(#filter0_f_2476_4033)" /></g></svg>
