<?xml version="1.0" encoding="UTF-8" standalone="no"?>
<svg
   width="260.85544pt"
   height="169.94699pt"
   version="1.1"
   viewBox="0 0 260.85544 169.94698"
   id="svg1"
   sodipodi:docname="tax.svg"
   xml:space="preserve"
   inkscape:version="1.3.2 (091e20e, 2023-11-25, custom)"
   xmlns:inkscape="http://www.inkscape.org/namespaces/inkscape"
   xmlns:sodipodi="http://sodipodi.sourceforge.net/DTD/sodipodi-0.dtd"
   xmlns="http://www.w3.org/2000/svg"
   xmlns:svg="http://www.w3.org/2000/svg"><defs
     id="defs1" /><sodipodi:namedview
     id="namedview1"
     pagecolor="#ffffff"
     bordercolor="#000000"
     borderopacity="0.25"
     inkscape:showpageshadow="2"
     inkscape:pageopacity="0.0"
     inkscape:pagecheckerboard="0"
     inkscape:deskcolor="#d1d1d1"
     inkscape:document-units="pt"
     inkscape:zoom="0.508125"
     inkscape:cx="754.73555"
     inkscape:cy="760.63961"
     inkscape:window-width="1920"
     inkscape:window-height="1009"
     inkscape:window-x="-8"
     inkscape:window-y="-8"
     inkscape:window-maximized="1"
     inkscape:current-layer="svg1" /><path
     d="m 232.42011,132.07293 -1.62167,-1.46861 -0.46474,1.89113 2.08821,-0.42088 z m 24.26331,-20.62025 -20.1482,18.25066 -0.0155,0.0141 -1.52069,1.37314 -3.11785,-2.82359 6.48642,-5.87418 15.19778,-13.76128 3.11785,2.82357 z m -1.28431,-4.4833 3.11785,2.82357 2.33847,-2.11775 -3.11785,-2.82357 z m -80.61912,16.61694 c 0,-0.64986 0.58138,-1.17633 1.29892,-1.17633 0.71755,0 1.29938,0.52652 1.29938,1.17633 v 0.65633 c 0.68377,0.208 1.29893,0.56801 1.78862,1.04773 0.79683,0.7829 1.23625,1.80969 1.23088,2.87445 0,0.64986 -0.58183,1.17673 -1.29938,1.17673 -0.71754,0 -1.29893,-0.52691 -1.29893,-1.17673 0.006,-0.47209 -0.18562,-0.92885 -0.53596,-1.27798 -0.3027,-0.30802 -0.73629,-0.48419 -1.19123,-0.48419 -0.4554,0 -0.88855,0.17617 -1.19122,0.48419 -0.34544,0.35234 -0.53641,0.80709 -0.53641,1.27798 0,0.47126 0.19097,0.92601 0.53641,1.27797 0.30493,0.30518 0.73672,0.48054 1.19122,0.48457 1.17437,0.004 2.29255,0.45354 3.0849,1.23846 0.79463,0.78411 1.23534,1.81009 1.23534,2.87445 0,1.06435 -0.4407,2.08988 -1.23534,2.87445 -0.48968,0.47973 -1.10486,0.83974 -1.78859,1.04773 v 0.65752 c 0,0.64987 -0.58183,1.17632 -1.29893,1.17632 -0.71758,0 -1.29938,-0.5265 -1.29938,-1.17632 v -0.65752 c -0.68376,-0.20803 -1.29892,-0.56803 -1.78861,-1.04773 -0.79683,-0.7829 -1.23669,-1.80968 -1.23089,-2.87445 0,-0.64987 0.58183,-1.17674 1.29937,-1.17674 0.71716,0 1.29894,0.52691 1.29894,1.17674 -0.006,0.47208 0.18518,0.92885 0.53596,1.27797 0.30271,0.30801 0.73629,0.48417 1.19124,0.48417 0.45495,0 0.88854,-0.17616 1.19121,-0.48417 0.34544,-0.35233 0.53599,-0.80708 0.53599,-1.27797 0,-0.47128 -0.19055,-0.92602 -0.53599,-1.27839 -0.30537,-0.30477 -0.73717,-0.48015 -1.19121,-0.48418 -1.17437,-0.004 -2.29255,-0.45353 -3.08493,-1.23845 -0.79461,-0.78452 -1.23531,-1.81009 -1.23531,-2.87445 0,-1.06435 0.44069,-2.08989 1.23531,-2.87444 0.48968,-0.47974 1.1049,-0.83975 1.78862,-1.04774 z m 1.00918,-42.956769 c -0.45584,0.49909 -1.27226,0.569242 -1.82382,0.156418 -0.55111,-0.412811 -0.62858,-1.152166 -0.17273,-1.651271 l 1.84743,-2.016092 -1.47569,-0.635344 c -0.35034,-0.150367 -0.60852,-0.434989 -0.70246,-0.776058 -0.094,-0.341053 -0.0139,-0.701864 0.21724,-0.984066 l 3.05779,-3.715366 c 0.42779,-0.519241 1.23932,-0.625674 1.81265,-0.238252 0.5729,0.387424 0.69088,1.122347 0.26309,1.641575 l -2.11409,2.568436 1.49755,0.643829 v 3.94e-4 c 0.37929,0.142712 0.66152,0.43983 0.76035,0.801049 0.0989,0.361221 0.003,0.743395 -0.25865,1.030437 l -2.90861,3.175591 z M 194.4012,44.714423 h -10.47946 c -0.25687,-0.0071 -0.50838,0.06572 -0.71225,0.206814 -0.0952,0.06009 -0.15715,0.154406 -0.16962,0.258812 v 9.59677 c 0.0126,0.104418 0.0745,0.198749 0.16962,0.258812 0.20387,0.141107 0.45538,0.214075 0.71225,0.206813 h 29.25479 c 0.25688,0.0071 0.50838,-0.06572 0.71271,-0.206813 0.0952,-0.06009 0.15671,-0.154393 0.16962,-0.258812 v -9.600794 c -0.0126,-0.104002 -0.0745,-0.198751 -0.16962,-0.258813 -0.20433,-0.141108 -0.45583,-0.214074 -0.71271,-0.206814 h -10.48345 c -0.47053,4.1e-4 -0.90455,-0.231412 -1.13204,-0.60472 -0.22747,-0.3729 -0.21278,-0.828858 0.0382,-1.189628 0.10961,-0.154011 0.19498,-0.320507 0.2542,-0.495474 0.0538,-0.167296 0.0806,-0.340659 0.0792,-0.515218 -0.0219,-0.626477 -0.35213,-1.211411 -0.90099,-1.593573 -0.71538,-0.491827 -1.58838,-0.757915 -2.48617,-0.757915 -0.89788,0 -1.77083,0.266072 -2.48616,0.757915 -0.54488,0.380965 -0.8743,0.961889 -0.89834,1.585116 -0.001,0.17415 0.0254,0.347906 0.0792,0.515217 0.0508,0.152789 0.12202,0.299525 0.21189,0.437003 0.2827,0.357588 0.32143,0.828055 0.0996,1.219475 -0.22123,0.39104 -0.66596,0.637369 -1.15122,0.638173 z m -11.54306,23.685412 h -13.22512 c -0.85781,0.0042 -1.5518,0.63253 -1.55625,1.40936 v 11.97687 c 0.004,0.77645 0.69846,1.405333 1.55625,1.409359 h 13.22512 c 0.85782,-0.0042 1.5518,-0.632936 1.55625,-1.409359 V 69.807127 c -0.004,-0.776043 -0.69935,-1.403787 -1.55625,-1.407813 z m -13.22512,-2.353164 c -1.09997,0.0014 -2.15407,0.398301 -2.93141,1.10263 -0.77769,0.704286 -1.21573,1.658912 -1.21802,2.654729 v 11.976869 c 0.001,0.995761 0.44027,1.950359 1.21802,2.654729 0.77725,0.704287 1.83134,1.100576 2.93141,1.102644 h 13.22512 c 1.09998,-0.0014 2.15363,-0.398316 2.93141,-1.102644 0.77769,-0.704286 1.21573,-1.658897 1.21802,-2.654729 V 69.807127 c -10e-4,-0.996564 -0.4385,-1.952006 -1.21618,-2.657094 -0.77816,-0.705102 -1.83274,-1.101813 -2.93313,-1.103769 z m 26.32262,19.260006 c -0.71762,0 -1.29938,-0.526913 -1.29938,-1.176737 0,-0.649866 0.58182,-1.176328 1.29938,-1.176328 h 25.93058 c 0.71759,0 1.29891,0.526504 1.29891,1.176328 0,0.649867 -0.58137,1.176737 -1.29891,1.176737 z m -27.4873,9.040911 -4.4e-4,-4.08e-4 c -0.71716,0 -1.29892,-0.526507 -1.29892,-1.176313 0,-0.649815 0.58182,-1.176738 1.29892,-1.176738 h 59.83954 c 0.7176,0 1.29892,0.526896 1.29892,1.176738 0,0.649825 -0.58139,1.176313 -1.29892,1.176313 z m 0.0628,6.811482 v -4e-4 c -0.71759,0 -1.29938,-0.5265 -1.29938,-1.176327 0,-0.649806 0.58183,-1.176729 1.29938,-1.176729 h 60.03443 c 0.71714,0 1.29892,0.526905 1.29892,1.176729 0,0.649847 -0.58183,1.176327 -1.29892,1.176327 z m 0,6.81151 v -4.1e-4 c -0.71759,0 -1.29938,-0.52651 -1.29938,-1.17633 0,-0.64982 0.58183,-1.17674 1.29938,-1.17674 h 60.03443 c 0.71714,0 1.29892,0.52691 1.29892,1.17674 0,0.64982 -0.58183,1.17633 -1.29892,1.17633 z m 0,6.81148 v -4.1e-4 c -0.71759,0 -1.29938,-0.5265 -1.29938,-1.17631 0,-0.64982 0.58183,-1.17674 1.29938,-1.17674 h 60.03443 c 0.71714,0 1.29892,0.52692 1.29892,1.17674 0,0.64982 -0.58183,1.17631 -1.29892,1.17631 z m 15.51915,9.09975 c -2.48,-2.24595 -5.97222,-3.31947 -9.44892,-2.90471 -3.47717,0.41445 -6.54386,2.26969 -8.29736,5.02038 -1.7535,2.75062 -1.99476,6.08297 -0.65261,9.01749 1.34166,2.9341 4.11455,5.13649 7.50225,5.95841 3.38724,0.822 7.00459,0.17051 9.78683,-1.76294 2.78222,-1.93343 4.41368,-4.92884 4.41368,-8.10474 0.004,-2.70996 -1.18495,-5.30977 -3.30394,-7.22389 z m 44.97566,11.26992 6.15389,-1.23848 c 0.28178,-0.0339 0.54307,-0.15075 0.74384,-0.33298 l 0.22971,-0.20923 v 11.34835 H 160.94966 V 53.225592 h 19.50091 l -4.3e-4,1.550861 c 0.0112,0.801839 0.41802,1.557349 1.11067,2.056861 0.6673,0.49304 1.50326,0.760733 2.36424,0.756693 h 29.25366 c 0.86139,0.0042 1.69746,-0.263653 2.36469,-0.756693 0.69266,-0.499484 1.10042,-1.254967 1.11021,-2.056861 v -1.550861 h 19.4998 V 121.0825 l -6.51488,5.89514 c -0.12872,-0.54104 -0.65662,-0.92724 -1.26782,-0.92764 H 188.7865 c -0.69399,-1.43154 -1.67692,-2.73327 -2.89756,-3.8391 -0.23993,-0.21731 -0.48834,-0.42612 -0.74519,-0.62648 H 228.565 c 0.71759,0 1.29938,-0.52692 1.29938,-1.17674 0,-0.64987 -0.58183,-1.17633 -1.29938,-1.17633 h -47.89421 c -3.47397,-1.10056 -7.28859,-0.90585 -10.60413,0.54183 -3.31512,1.44724 -5.85918,4.02901 -7.07228,7.1759 -1.21265,3.14692 -0.99495,6.60107 0.60586,9.60246 1.60081,3.00139 4.45288,5.30377 7.92869,6.39991 3.47578,1.09612 7.28995,0.89618 10.60324,-0.55553 3.31283,-1.45168 5.85289,-4.03622 7.06109,-7.18479 h 39.43947 c 0.13402,0 0.26754,-0.0189 0.39531,-0.0556 z m -20.9505,-2.29228 h 19.52144 l 1.10889,-4.50188 h 4.6e-4 c -0.10906,0.0266 -0.22125,0.0399 -0.33387,0.0399 h -38.74204 c 0.35211,1.46459 0.41488,2.97395 0.18563,4.45834 h 18.2599 z m 10.18124,-58.12473 h -22.2998 c -0.7176,0 -1.29938,0.526913 -1.29938,1.176329 0,0.649866 0.58182,1.176737 1.29938,1.176737 h 25.93059 c 0.71758,0 1.29891,-0.526913 1.29891,-1.176737 0,-0.649458 -0.58137,-1.176329 -1.29891,-1.176329 z m -4.14884,-8.219707 h -18.15164 c -0.7176,0 -1.29938,0.526913 -1.29938,1.17633 0,0.649865 0.58182,1.176735 1.29938,1.176735 h 25.93058 c 0.71759,0 1.29892,-0.526911 1.29892,-1.176735 0,-0.649473 -0.58138,-1.17633 -1.29892,-1.17633 z m 15.10773,80.553107 h -69.56492 c -0.71582,0 -1.29631,-0.52571 -1.29631,-1.17396 V 56.983569 h -4.34076 v 94.021281 h 75.20143 z"
     fill="#676767"
     fill-rule="evenodd"
     id="path1"
     style="stroke-width:0.10845" /><g
     fill="#ff814a"
     id="g5"
     transform="matrix(0.16461288,0,0,0.14907592,-5.5309928,-4.4722776)"><path
       d="m 600,370.8 c 93.602,0 170.4,-76.801 170.4,-170.4 C 770.4,106.798 693.603,30 600,30 c -93.603,0 -170.4,76.801 -170.4,170.4 0,93.602 76.797,170.4 170.4,170.4 z M 584.398,111.6 V 92.397 c 0,-4.8008 3.6016,-8.3984 8.3984,-8.3984 h 15.602 c 4.8008,0 8.3984,3.6016 8.3984,8.3984 v 19.199 c 24,1.1992 44.398,19.199 49.199,42 1.1992,4.8008 -2.3984,9.6016 -7.1992,9.6016 h -15.602 c -3.6016,0 -6,-2.3984 -7.1992,-6 -2.3984,-8.3984 -10.801,-15.602 -20.398,-15.602 l -27.598,0.004 c -10.801,0 -20.398,8.3984 -21.602,19.199 -1.1992,13.199 8.3984,22.801 21.602,22.801 h 24 c 28.801,0 52.801,24 52.801,51.602 0,27.602 -21.602,50.398 -49.199,51.602 v 19.199 c 0,4.8008 -3.6016,8.3984 -8.3984,8.3984 h -15.602 c -4.8008,0 -8.3984,-3.6016 -8.3984,-8.3984 v -19.199 c -24,-1.1992 -44.398,-19.199 -49.199,-42 -1.1992,-4.8008 2.3984,-9.6016 7.1992,-9.6016 h 15.602 c 3.6016,0 6,2.3984 7.1992,6 2.3984,8.3984 10.801,15.602 20.398,15.602 L 612,256.8 c 10.801,0 20.398,-8.3984 21.602,-19.199 C 634.8012,224.402 625.2036,214.8 612,214.8 h -24 c -28.801,0 -52.801,-24 -52.801,-51.602 0,-27.598 21.602,-49.199 49.199,-51.598 z"
       id="path1-1" /><path
       d="m 374.4,324 c 0,-93.602 -76.801,-170.4 -170.4,-170.4 -93.602,0 -170.4,76.797 -170.4,170.4 0,93.603 75.598,170.4 170.4,170.4 94.802,0 170.4,-75.598 170.4,-170.4 z m -156,88.801 V 432 c 0,4.8008 -3.6016,8.3984 -8.3984,8.3984 h -15.602 c -4.8008,0 -8.3984,-3.6016 -8.3984,-8.3984 v -19.199 c -24,-1.1992 -44.398,-19.199 -49.199,-42 -1.1992,-4.8008 2.3984,-9.6016 7.1992,-9.6016 h 15.602 c 3.6016,0 6,2.3984 7.1992,6 2.3984,8.3984 10.801,15.602 20.398,15.602 h 28.801 c 10.801,0 20.398,-8.3984 21.602,-19.199 1.1992,-13.199 -8.3984,-22.801 -21.602,-22.801 h -24 c -28.801,0 -52.801,-24 -52.801,-51.602 0,-27.602 21.602,-50.398 49.199,-51.602 v -21.598 c 0,-4.8008 3.6016,-8.3984 8.3984,-8.3984 H 212.4 c 4.8008,0 8.3984,3.6016 8.3984,8.3984 v 19.199 c 24,1.1992 44.398,19.199 49.199,42 1.1992,4.8008 -2.3984,9.6016 -7.1992,9.6016 h -15.602 c -3.6016,0 -6,-2.3984 -7.1992,-6 -2.3984,-8.3984 -10.801,-15.602 -20.398,-15.602 H 194.4 c -10.801,0 -20.398,8.3984 -21.602,19.199 -1.1992,13.199 8.3984,22.801 21.602,22.801 h 24 c 28.801,0 52.801,24 52.801,51.602 -2.3984,30 -25.199,52.801 -52.801,54 z"
       id="path2" /><path
       d="m 996,153.6 c -93.602,0 -170.4,76.801 -170.4,170.4 0,93.602 76.797,170.4 170.4,170.4 93.603,0 170.4,-75.598 170.4,-170.4 0,-94.802 -75.598,-170.4 -170.4,-170.4 z m 15.602,259.2 v 19.199 c 0,4.8008 -3.6016,8.3984 -8.3984,8.3984 h -15.602 c -4.8008,0 -8.3984,-3.6016 -8.3984,-8.3984 V 412.8 c -24,-1.1992 -44.398,-19.199 -49.199,-42 -1.1992,-4.8008 2.3984,-9.6016 7.1992,-9.6016 h 15.602 c 3.6016,0 6,2.3984 7.1992,6 2.3984,8.3984 10.801,15.602 20.398,15.602 h 25.199 c 10.801,0 20.398,-8.3984 21.602,-19.199 1.1992,-13.199 -8.3984,-22.801 -21.602,-22.801 h -24 c -28.801,0 -52.801,-24 -52.801,-51.602 0,-27.602 21.602,-50.398 49.199,-51.602 v -21.598 c 0,-4.8008 3.6016,-8.3984 8.3984,-8.3984 H 1002 c 4.8008,0 8.3984,3.6016 8.3984,8.3984 v 19.199 c 24,1.1992 44.398,19.199 49.199,42 1.1992,4.8008 -2.3984,9.6016 -7.1992,9.6016 h -15.602 c -3.6016,0 -6,-2.3984 -7.1992,-6 -2.3984,-8.3984 -10.801,-15.602 -20.398,-15.602 H 984 c -10.801,0 -20.398,8.3984 -21.602,19.199 -1.1992,13.199 8.3984,22.801 21.602,22.801 h 24 c 28.801,0 52.801,24 52.801,51.602 0,30 -21.602,52.801 -49.199,54 z"
       id="path3" /><path
       d="m 739.2,603.6 c 0,76.875 -62.32,139.2 -139.2,139.2 -76.88,0 -139.2,-62.324 -139.2,-139.2 0,-76.879 62.32,-139.2 139.2,-139.2 76.88,0 139.2,62.324 139.2,139.2"
       id="path4" /><path
       d="m 902.4,542.4 c -33.602,-6 -67.199,15.602 -73.199,49.199 l -15.602,81.602 c -12,60 -63.602,103.2 -124.8,103.2 h -177.6 c -61.199,0 -114,-43.199 -124.8,-103.2 l -15.602,-81.602 c -6,-33.602 -39.602,-56.398 -73.199,-49.199 -33.602,6 -56.398,39.602 -49.199,73.199 l 15.602,81.602 c 20.398,104.4 102,182.4 204,201.6 l -9.6016,219.6 c -1.1992,28.801 21.602,51.602 49.199,51.602 h 187.2 c 28.801,0 50.398,-24 49.199,-51.602 l -9.6016,-219.6 c 100.8,-18 183.6,-97.199 202.8,-201.6 l 15.602,-81.602 c 6.0039,-33.598 -16.797,-67.199 -50.398,-73.199 z"
       id="path5" /></g><text
     xml:space="preserve"
     style="font-size:32.5335px;line-height:0.1;word-spacing:0.0332729px;fill:#000000;stroke-width:1.1091"
     x="65.99678"
     y="45.129982"
     id="text1"
     transform="scale(1.0508196,0.95163815)"><tspan
       sodipodi:role="line"
       id="tspan1"
       style="font-size:32.5335px;line-height:0.1;word-spacing:0.0332729px;stroke:#000000;stroke-width:1.1091;stroke-opacity:1"
       x="65.99678"
       y="45.129982">IVA</tspan></text></svg>
