<?xml version="1.0" encoding="UTF-8" standalone="no"?>
<svg
   width="70.815842"
   height="96.511108"
   xml:space="preserve"
   overflow="hidden"
   version="1.1"
   id="svg4"
   sodipodi:docname="ubication.svg"
   inkscape:version="1.3.2 (091e20e, 2023-11-25, custom)"
   xmlns:inkscape="http://www.inkscape.org/namespaces/inkscape"
   xmlns:sodipodi="http://sodipodi.sourceforge.net/DTD/sodipodi-0.dtd"
   xmlns="http://www.w3.org/2000/svg"
   xmlns:svg="http://www.w3.org/2000/svg"><sodipodi:namedview
     id="namedview4"
     pagecolor="#ffffff"
     bordercolor="#000000"
     borderopacity="0.25"
     inkscape:showpageshadow="2"
     inkscape:pageopacity="0.0"
     inkscape:pagecheckerboard="0"
     inkscape:deskcolor="#d1d1d1"
     inkscape:zoom="3.9466019"
     inkscape:cx="53.843788"
     inkscape:cy="93.751538"
     inkscape:window-width="1350"
     inkscape:window-height="1032"
     inkscape:window-x="182"
     inkscape:window-y="0"
     inkscape:window-maximized="0"
     inkscape:current-layer="svg4" /><defs
     id="defs1"><clipPath
       id="clip0"><path
         d="M 490.411,33.5561 616.33,67.1324 582.59,192.442 456.672,158.866 Z"
         id="path1" /></clipPath><filter
       id="filter0_f_2476_4033"
       x="0.85790402"
       y="0.52489698"
       width="98.950203"
       height="26.950199"
       filterUnits="userSpaceOnUse"
       color-interpolation-filters="sRGB"><feFlood
         flood-opacity="0"
         result="BackgroundImageFix"
         id="feFlood1" /><feBlend
         mode="normal"
         in="SourceGraphic"
         in2="BackgroundImageFix"
         result="shape"
         id="feBlend1" /><feGaussianBlur
         stdDeviation="4.73755"
         result="effect1_foregroundBlur_2476_4033"
         id="feGaussianBlur1" /></filter></defs><g
     style="fill:none;stroke-width:1.30663"
     id="g5"
     transform="matrix(0.71567153,0,0,0.81842861,-0.61397748,74.024705)"><ellipse
       cx="50.333"
       cy="14"
       rx="40"
       ry="4"
       fill="#a5a5a5"
       fill-opacity="0.3"
       id="ellipse1"
       style="stroke-width:1.30663;filter:url(#filter0_f_2476_4033)" /></g><g
     transform="matrix(0.6894667,0,0,0.66990428,-327.50768,-36.131704)"
     id="g4"
     style="display:inline;stroke-width:1.47143"><g
       id="g3"
       style="stroke-width:1.47143"><g
         clip-path="url(#clip0)"
         id="g2"
         style="stroke-width:1.47143"><path
           d="m 133.291,168.051 3.339,-43.694 c 0.152,-2.016 -1.149,-3.838 -3.092,-4.359 l -14.65,-3.926 12.114,-11.123 c 5.519,-4.403 9.743,-10.5533 11.71,-17.8949 C 147.607,68.787 136.764,50.005 118.497,45.1107 100.23,40.2162 81.4476,51.0586 76.5534,69.326 74.5859,76.6687 75.1593,84.1034 77.747,90.6779 l 4.9301,15.6911 -14.65,-3.926 c -1.9433,-0.521 -3.9947,0.42 -4.8577,2.229 l -18.9537,39.509 c -0.5439,1.129 -0.5573,2.432 -0.0268,3.566 0.5304,1.134 1.5108,1.978 2.715,2.301 l 81.1001,21.731 c 1.205,0.323 2.49,0.09 3.502,-0.635 1.011,-0.721 1.666,-1.852 1.76,-3.102 z M 113.587,63.4892 c 7.303,1.9567 11.643,9.4732 9.686,16.777 -1.957,7.3039 -9.473,11.6431 -16.777,9.6864 -7.3037,-1.9566 -11.643,-9.4732 -9.6863,-16.7769 1.9567,-7.3039 9.4733,-11.6432 16.7773,-9.6865 z m 19.479,60.5848 -2.348,30.613 -15.921,-4.334 7.92,-29.561 9.898,2.652 c 0.274,0.073 0.46,0.338 0.436,0.625 z m -11.506,-3.582 -7.921,29.561 -11.14,-3.027 6.073,-21.472 7.197,-6.612 z m -8.229,30.711 -3.227,12.042 -31.0889,-8.33 -5.2305,-14.47 z M 91.8793,135.572 c 0.5981,1.918 2.982,2.557 4.4593,1.195 l 10.5464,-9.677 -5.55,19.615 -28.0553,-7.622 -4.4922,-12.447 8.8542,-17.91 6.3148,1.692 7.9094,25.166 z m -24.7664,-29.668 9.3492,2.506 -8.24,16.674 -4.6706,-12.898 2.8627,-5.965 c 0.1227,-0.26 0.4158,-0.397 0.69,-0.323 z m -4.2736,7.784 9.0413,24.998 -18.6035,-5.052 9.5637,-19.95 z M 47.467,146.252 c -0.0442,-0.091 -0.0972,-0.283 0,-0.509 l 5.2707,-10.996 19.6284,5.339 5.2405,14.473 -29.7465,-7.971 c -0.24,-0.064 -0.3426,-0.228 -0.3829,-0.333 z m 82,21.971 c -0.083,0.057 -0.273,0.158 -0.498,0.098 l -17.706,-4.745 3.227,-12.041 16.137,4.392 -0.91,11.87 c -0.024,0.25 -0.171,0.385 -0.255,0.441 z"
           fill="#4c25e0"
           transform="matrix(1.00485,0,0,1,433,10)"
           id="path2"
           style="stroke-width:1.47143" /></g></g></g></svg>
