<svg width="101" height="100" viewBox="0 0 101 100" fill="none" xmlns="http://www.w3.org/2000/svg">
<g id="User" clip-path="url(#clip0_2631_7876)">
<g id="Group">
<path id="Vector" d="M79.368 0H21.632C9.96112 0 0.5 9.46095 0.5 21.1318V78.8682C0.5 90.539 9.96112 100 21.632 100H79.368C91.0389 100 100.5 90.539 100.5 78.8682V21.1318C100.5 9.46095 91.0389 0 79.368 0Z" fill="url(#paint0_linear_2631_7876)"/>
<path id="Vector_2" d="M48.4995 24C41.8875 24 36.4995 29.388 36.4995 36V44C36.4995 47.8 38.2355 51.176 40.9995 53.376C32.4275 56.384 26.1675 64.268 25.8755 73.876C25.8636 74.4216 26.0665 74.9501 26.4407 75.3474C26.8148 75.7448 27.3301 75.9791 27.8755 76H59.4995C59.1967 75.4978 59.0064 74.936 58.9415 74.3532C58.8766 73.7704 58.9387 73.1805 59.1235 72.624L59.3795 72H30.3795C31.6995 62.72 39.5355 55.708 49.1275 56C51.0087 56.0814 52.8652 56.4608 54.6275 57.124C54.9877 56.5161 55.4997 56.0121 56.1132 55.6616C56.7268 55.311 57.4209 55.1257 58.1275 55.124H59.7515C58.5153 54.4274 57.2195 53.8425 55.8795 53.376C57.3151 52.2703 58.478 50.8502 59.2789 49.2248C60.0798 47.5994 60.4974 45.812 60.4995 44V36C60.4995 29.388 55.1115 24 48.4995 24ZM48.4995 28C52.9675 28 56.4995 31.532 56.4995 36V44C56.4995 48.468 52.9675 52 48.4995 52C44.0315 52 40.4995 48.468 40.4995 44V36C40.4995 31.532 44.0315 28 48.4995 28ZM70.4995 48C70.1267 48.0532 69.7765 48.2106 69.4892 48.454C69.202 48.6974 68.9892 49.017 68.8755 49.376L66.2475 57.252L58.1275 57.124C57.6969 57.1052 57.2718 57.2259 56.9154 57.4683C56.5591 57.7107 56.2905 58.0617 56.1498 58.469C56.0091 58.8764 56.0037 59.3183 56.1344 59.7289C56.2652 60.1396 56.5251 60.497 56.8755 60.748L63.4995 65.628L60.9995 73.376C60.8841 73.7673 60.8911 74.1846 61.0196 74.5718C61.1482 74.959 61.392 75.2976 61.7185 75.5423C62.045 75.7869 62.4385 75.9259 62.8462 75.9405C63.2539 75.9551 63.6563 75.8447 63.9995 75.624L70.6235 70.752L77.3755 75.624C77.7187 75.8447 78.1211 75.9551 78.5288 75.9405C78.9365 75.9259 79.33 75.7869 79.6565 75.5423C79.983 75.2976 80.2268 74.959 80.3554 74.5718C80.4839 74.1846 80.4909 73.7673 80.3755 73.376L77.8755 65.624L84.4995 60.88C84.8404 60.6352 85.0956 60.2894 85.229 59.8915C85.3624 59.4937 85.3674 59.0639 85.2431 58.6631C85.1187 58.2623 84.8715 57.9107 84.5363 57.6582C84.2012 57.4057 83.7951 57.265 83.3755 57.256H75.1235L72.6235 49.376C72.4865 48.9598 72.2165 48.6001 71.8552 48.3522C71.4939 48.1044 71.0611 47.982 70.6235 48.004C70.5822 48.0027 70.5408 48.0027 70.4995 48.004V48ZM70.7515 56.5L71.7515 59.876C71.8814 60.2717 72.1316 60.617 72.4672 60.8637C72.8028 61.1104 73.207 61.2461 73.6235 61.252H77.1235L74.3755 63.252C74.0269 63.4976 73.7659 63.8482 73.6306 64.2526C73.4953 64.657 73.4928 65.0941 73.6235 65.5L74.6235 68.752L71.8755 66.752C71.5315 66.498 71.1151 66.3609 70.6875 66.3609C70.2599 66.3609 69.8435 66.498 69.4995 66.752L66.7475 68.752L67.7475 65.5C67.8927 65.1066 67.9106 64.6775 67.7986 64.2734C67.6866 63.8693 67.4505 63.5106 67.1235 63.248L64.2515 61.248H67.7475C68.1806 61.2359 68.5981 61.0835 68.9372 60.8138C69.2762 60.544 69.5185 60.1714 69.6275 59.752L70.7515 56.5Z" fill="#FDFDFD"/>
</g>
</g>
<defs>
<linearGradient id="paint0_linear_2631_7876" x1="18.5147" y1="10.4167" x2="77.8284" y2="93.2598" gradientUnits="userSpaceOnUse">
<stop stop-color="#2858B5"/>
<stop offset="1" stop-color="#18778C"/>
</linearGradient>
<clipPath id="clip0_2631_7876">
<rect width="100" height="100" fill="white" transform="translate(0.5)"/>
</clipPath>
</defs>
</svg>
