<svg width="101" height="100" viewBox="0 0 101 100" fill="none" xmlns="http://www.w3.org/2000/svg">
<g id="User" clip-path="url(#clip0_2631_7679)">
<g id="Group">
<path id="Vector" d="M79.368 0H21.632C9.96112 0 0.5 9.46095 0.5 21.1318V78.8682C0.5 90.539 9.96112 100 21.632 100H79.368C91.0389 100 100.5 90.539 100.5 78.8682V21.1318C100.5 9.46095 91.0389 0 79.368 0Z" fill="url(#paint0_linear_2631_7679)"/>
<path id="Vector_2" d="M50.4996 26.124C43.8876 26.124 38.4996 31.512 38.4996 38.124V46.124C38.4996 50.724 41.1956 54.736 44.9996 56.748C35.4716 59.172 28.1916 67.568 27.8796 77.876C27.8632 78.1485 27.9028 78.4215 27.9959 78.6782C28.0891 78.9349 28.2338 79.17 28.4212 79.3686C28.6086 79.5673 28.8346 79.7251 29.0854 79.833C29.3363 79.9409 29.6065 79.9966 29.8796 79.9961H71.1276C71.658 79.9961 72.1667 79.7852 72.5418 79.4101C72.9169 79.0351 73.1276 78.5265 73.1276 77.9961C72.9956 73.086 71.2636 68.353 68.195 64.5176C65.1264 60.6822 60.8891 57.9542 56.1276 56.748C58.0553 55.7239 59.6672 54.1933 60.79 52.3213C61.9127 50.4493 62.5038 48.3069 62.4996 46.124V38.124C62.4996 31.512 57.1156 26.124 50.4996 26.124ZM50.4996 30.124C54.9676 30.124 58.4996 33.66 58.4996 38.124V46.124C58.4996 50.592 54.9676 54.124 50.4996 54.124C46.0356 54.124 42.4996 50.592 42.4996 46.124V38.124C42.4996 33.66 46.0356 30.124 50.4996 30.124ZM51.1276 60C60.2796 60.28 67.3596 67.14 68.6276 76H32.3756C33.7316 66.76 41.5596 59.708 51.1276 60Z" fill="#FDFDFD"/>
</g>
</g>
<defs>
<linearGradient id="paint0_linear_2631_7679" x1="18.5147" y1="10.4167" x2="77.8284" y2="93.2598" gradientUnits="userSpaceOnUse">
<stop stop-color="#2858B5"/>
<stop offset="1" stop-color="#18778C"/>
</linearGradient>
<clipPath id="clip0_2631_7679">
<rect width="100" height="100" fill="white" transform="translate(0.5)"/>
</clipPath>
</defs>
</svg>
