<svg width="97" height="72" viewBox="0 0 97 72" fill="none" xmlns="http://www.w3.org/2000/svg">
<path id="Vector" d="M26.1578 70.7191C35.8371 53.3912 61.0785 18.8614 96.2972 2.72351C96.5409 2.63899 96.7468 2.44965 96.8721 2.19494C96.9973 1.94023 97.0322 1.63979 96.9696 1.35621C96.9069 1.07264 96.7514 0.8278 96.5356 0.672713C96.3197 0.517626 96.0601 0.464249 95.8108 0.523704C70.5224 3.73326 39.8061 28.6343 25.9068 49.2079C20.2079 38.7967 11.6431 30.8755 1.57534 26.705C1.32651 26.602 1.05474 26.5983 0.803876 26.6946C0.553014 26.7909 0.3377 26.9815 0.19267 27.2357C0.0476399 27.4899 -0.0186403 27.7929 0.00452219 28.0957C0.0276847 28.3986 0.138933 28.6836 0.320328 28.9048C6.79931 36.4959 18.6905 51.2454 23.4125 70.3765C23.5192 70.6779 23.6949 70.9405 23.9209 71.1364C24.1469 71.3324 24.4148 71.4543 24.6962 71.4895C24.9776 71.5246 25.2621 71.4715 25.5194 71.3359C25.7767 71.2003 25.9973 70.9872 26.1578 70.7191Z" fill="#2BD9FF"/>
</svg>
